<?xml version="1.0" standalone="no"?>
<!DOCTYPE svg PUBLIC "-//W3C//DTD SVG 20010904//EN"
 "http://www.w3.org/TR/2001/REC-SVG-20010904/DTD/svg10.dtd">
<svg version="1.0" xmlns="http://www.w3.org/2000/svg"
 width="150.000000pt" height="150.000000pt" viewBox="0 0 150.000000 150.000000"
 preserveAspectRatio="xMidYMid meet">
<metadata>
Created by potrace 1.11, written by Peter Selinger 2001-2013
</metadata>
<g transform="translate(0.000000,150.000000) scale(0.100000,-0.100000)"
fill="#000000" stroke="none">
<path d="M628 1470 c-277 -50 -494 -246 -579 -520 -34 -108 -34 -292 0 -400
77 -248 253 -424 501 -501 108 -34 292 -34 400 0 248 77 424 253 501 501 34
108 34 292 0 400 -76 246 -253 425 -496 500 -79 24 -249 35 -327 20z m368
-509 l-166 -166 0 -166 c0 -171 4 -189 42 -189 10 0 18 -4 18 -10 0 -6 -50
-10 -130 -10 -80 0 -130 4 -130 10 0 6 8 10 18 10 35 0 42 21 42 119 l0 96
-159 -159 c-87 -87 -161 -154 -164 -149 -3 5 68 83 159 174 l164 164 0 152 c0
124 -3 154 -16 167 -8 9 -22 16 -30 16 -8 0 -14 5 -14 10 0 6 50 10 130 10 80
0 130 -4 130 -10 0 -5 -6 -10 -14 -10 -34 0 -46 -30 -46 -113 l0 -82 157 157
c86 86 161 154 166 151 5 -3 -66 -80 -157 -172z"/>
</g>
</svg>
