<?xml version="1.0" encoding="UTF-8"?>
<svg width="20px" height="19px" viewBox="0 0 20 19" version="1.1" xmlns="http://www.w3.org/2000/svg" xmlns:xlink="http://www.w3.org/1999/xlink">
    <!-- Generator: Sketch 59.1 (86144) - https://sketch.com -->
    <title>check</title>
    <desc>Created with Sketch.</desc>
    <g id="Page-1" stroke="none" stroke-width="1" fill="none" fill-rule="evenodd">
        <g id="POSTER-ANNONCE-Copy" transform="translate(-513.000000, -732.000000)" fill="#818181" fill-rule="nonzero">
            <g id="check" transform="translate(513.000000, 732.000000)">
                <polygon id="Path" points="5.43476121 8.3104332 5 8.69958988 9.55503274 13.75 20 1.62920071 19.5566431 1.25 9.54504072 12.8679451"></polygon>
                <path d="M17.7036913,6.54294241 C18.0128766,7.45224336 18.1695881,8.40504566 18.1695881,9.37499944 C18.1695881,14.2243321 14.2243238,18.1695891 9.37498226,18.1695891 C4.5256695,18.1695891 0.580411918,14.2243321 0.580411918,9.37499944 C0.580411918,4.52569554 4.5256692,0.580410884 9.37498226,0.580410884 C10.9586652,0.580410884 12.5108604,1.00593913 13.8641203,1.81096908 L14.1611169,1.31216408 C12.718039,0.453736063 11.0629426,0 9.37498226,0 C4.20568839,0 0,4.20557027 0,9.37499944 C0,14.5444286 4.2056881,18.75 9.37498226,18.75 C14.5442765,18.75 18.75,14.5444289 18.75,9.37499944 C18.75,8.3414326 18.5828114,7.32571356 18.2534846,6.35619484 L17.7036913,6.54294241 Z" id="Path"></path>
            </g>
        </g>
    </g>
</svg>