<?xml version="1.0" encoding="UTF-8"?>
<svg width="50px" height="41px" viewBox="0 0 50 41" version="1.1" xmlns="http://www.w3.org/2000/svg" xmlns:xlink="http://www.w3.org/1999/xlink">
    <!-- Generator: Sketch 57.1 (83088) - https://sketch.com -->
    <title>Shape</title>
    <desc>Created with Sketch.</desc>
    <g id="Page-1" stroke="none" stroke-width="1" fill="none" fill-rule="evenodd">
        <g id="TROUVER-UN-BIEN---SINGLE" transform="translate(-989.000000, -1279.000000)" fill="#FFFFFF" fill-rule="nonzero">
            <g id="Group-2" transform="translate(925.000000, 1260.000000)">
                <g id="noun_Blueprint_995067" transform="translate(64.000000, 19.000000)">
                    <path d="M15.6268024,0 L15.6268024,5.32970367 L12.3489202,5.32970367 L12.3489202,6.09957481 L12.3489202,11.8554141 L3.64435789,11.8554141 L3.64435789,12.6252101 L3.64435789,31.7708684 L12.3489202,31.7708684 L12.3489202,34.1954361 L10.9710384,34.1954361 L10.9710384,35.1868712 L12.3489202,35.1868712 L12.3489202,35.6702957 L20.3225713,35.6702957 L23.0720588,35.6702957 L23.0720588,41 L43.1046065,41 L43.1046065,35.6702957 L44.6389595,35.6702957 L44.6389595,31.9654413 L50,31.9654413 L50,31.1955702 L50,12.049987 L44.6389595,12.049987 L44.6389595,5.32970367 L32.7717683,5.32970367 L32.7717683,0 L31.9973706,0 L15.6268024,0 Z M17.1755976,1.5397423 L31.222973,1.5397423 L31.222973,5.32970367 L17.1755976,5.32970367 L17.1755976,1.5397423 Z M0.498669489,6.8004282 L0.498669489,7.29610776 L0,7.29610776 L0,8.41745835 L0.997338979,8.41745835 L0.997338979,7.79186285 L3.49061283,7.79186285 L3.49061283,6.8004282 L0.498669489,6.8004282 Z M4.48802927,6.8004282 L4.48802927,7.79186285 L7.47989519,7.79186285 L7.47989519,6.8004282 L4.48802927,6.8004282 Z M8.47723408,6.8004282 L8.47723408,7.79186285 L11.4691775,7.79186285 L11.4691775,6.8004282 L8.47723408,6.8004282 Z M13.8977154,6.86944594 L36.2846141,6.86944594 C36.9092631,10.3018562 39.6307228,12.9769524 43.0901642,13.559055 L43.0901642,21.7063069 L34.4641759,21.7063069 L30.758865,16.8092047 L30.1045572,17.2484974 L34.1074535,23.8429999 L43.0901642,23.8429999 L43.0901642,31.9654413 L43.0901642,34.1305535 L41.5558113,34.1305535 L41.5558113,31.8241729 L30.5944567,31.8241729 L30.5944567,34.1305535 L20.3225713,34.1305535 L20.3225713,21.3451287 L13.8977154,21.3451287 L13.8977154,21.2412265 L13.8977154,18.2875224 L22.0206475,18.2875224 L22.0206475,21.7063069 L22.0206475,23.8429999 L27.6087896,23.8429999 L27.6087896,21.7063069 L24.1699802,21.7063069 L24.1699802,16.1508294 L13.8977154,16.1508294 L13.8977154,14.3008828 L13.8977154,13.3093731 L13.8977154,11.8554141 L13.8977154,10.3349186 L13.8977154,9.34340887 L13.8977154,7.29610776 L13.8977154,6.86944594 Z M37.4959696,6.86944594 L43.0901642,6.86944594 L43.0901642,12.049987 L43.0901642,12.367183 C43.078438,12.3654578 43.0667161,12.3637035 43.0549987,12.3619201 C42.8216956,12.3149257 42.5909027,12.2563604 42.3634848,12.1864438 C42.1360991,12.1165064 41.9123737,12.035308 41.6931468,11.9431527 C41.4739111,11.8509914 41.2594488,11.7479877 41.0505634,11.6345275 C40.841672,11.5210872 40.6386178,11.3973322 40.4421616,11.2637262 C40.2457156,11.1301075 40.056114,10.9868056 39.8740673,10.8343574 C39.6920048,10.6819206 39.5177245,10.5205274 39.3518794,10.3507823 C39.1860415,10.1810175 39.0288476,10.0031134 38.8808869,9.81773658 C38.7329283,9.63236883 38.5943871,9.43976076 38.4657826,9.24063406 C38.3371861,9.04152272 38.2186856,8.83614276 38.110725,8.62526363 C38.00275,8.41438023 37.9054508,8.19826056 37.8191918,7.97771436 C37.7329533,7.75713804 37.6578656,7.53241184 37.5942099,7.3043779 C37.5568907,7.16045891 37.5241278,7.01541007 37.4959696,6.86944594 L37.4959696,6.86944594 Z M0,9.408893 L0,12.3833475 L0.997338979,12.3833475 L0.997338979,9.408893 L0,9.408893 L0,9.408893 Z M0,13.3748572 L0,16.3492367 L0.997338979,16.3492367 L0.997338979,13.3748572 L0,13.3748572 Z M5.19315329,13.3951568 L12.3489202,13.3951568 L12.3489202,16.1508294 L12.3489202,18.2875224 L12.3489202,21.3451287 L12.3489202,30.2311261 L5.19315329,30.2311261 L5.19315329,13.3951568 Z M44.6389595,13.5897293 L48.4512038,13.5897293 L48.4512038,30.4256991 L44.6389595,30.4256991 L44.6389595,23.8429999 L44.6389595,13.5897293 L44.6389595,13.5897293 Z M0,17.3407464 L0,20.315276 L0.997338979,20.315276 L0.997338979,17.3407464 L0,17.3407464 Z M0,21.3067107 L0,24.2811647 L0.997338979,24.2811647 L0.997338979,21.3067107 L0,21.3067107 Z M13.8977154,22.884871 L18.773776,22.884871 L18.773776,25.5573918 L13.8977154,25.5573918 L13.8977154,25.2071903 L13.8977154,22.884871 Z M0,25.2726744 L0,28.247129 L0.997338979,28.247129 L0.997338979,25.2726744 L0,25.2726744 Z M13.8977154,26.7875317 L18.773776,26.7875317 L18.773776,29.9376127 L13.8977154,29.9376127 L13.8977154,29.173155 L13.8977154,26.7875317 Z M0,29.2385641 L0,32.2130182 L0.997338979,32.2130182 L0.997338979,29.2385641 L0,29.2385641 Z M13.8977154,31.1678281 L18.773776,31.1678281 L18.773776,34.1305535 L13.8977154,34.1305535 L13.8977154,33.1390437 L13.8977154,31.7708684 L13.8977154,31.1678281 Z M0,33.2046034 L0,34.6912663 L0,35.1868712 L0.498669489,35.1868712 L1.99520839,35.1868712 L1.99520839,34.1954361 L0.997338979,34.1954361 L0.997338979,33.2046034 L0,33.2046034 Z M2.99262483,34.1954361 L2.99262483,35.1868712 L5.98449093,35.1868712 L5.98449093,34.1954361 L2.99262483,34.1954361 Z M6.98182982,34.1954361 L6.98182982,35.1868712 L9.97377325,35.1868712 L9.97377325,34.1954361 L6.98182982,34.1954361 Z M24.6208541,35.6702957 L41.5558113,35.6702957 L41.5558113,39.4602577 L24.6208541,39.4602577 L24.6208541,35.6702957 L24.6208541,35.6702957 Z" id="Shape"></path>
                </g>
            </g>
        </g>
    </g>
</svg>