<?xml version="1.0" encoding="utf-8"?>
<!-- Generator: Adobe Illustrator 22.1.0, SVG Export Plug-In . SVG Version: 6.00 Build 0)  -->
<svg version="1.1" id="Calque_1" xmlns="http://www.w3.org/2000/svg" xmlns:xlink="http://www.w3.org/1999/xlink" x="0px" y="0px"
	 viewBox="0 0 24 18" style="enable-background:new 0 0 24 18;" xml:space="preserve">
<title>Path</title>
<desc>Created with Sketch.</desc>
<g id="Symbols">
	<g id="FOOTER" transform="translate(-1017.000000, -215.000000)">
		<g id="Group-2">
			<g id="if_03-twitter_104501" transform="translate(1017.000000, 215.000000)">
				<path id="Path" d="M23.1,2.1c-0.9,0.4-1.8,0.6-2.7,0.7c1-0.6,1.7-1.5,2.1-2.5c-0.9,0.5-1.9,0.9-3,1.1C18.6,0.6,17.4,0,16,0
					c-2.6,0-4.7,2-4.7,4.5c0,0.4,0,0.7,0.1,1C7.5,5.4,4,3.6,1.6,0.8C1.2,1.5,1,2.3,1,3.1c0,1.6,0.8,3,2.1,3.8
					c-0.8,0-1.5-0.2-2.2-0.6c0,0,0,0,0,0.1c0,2.2,1.6,4,3.8,4.5C4.3,10.9,3.9,11,3.5,11c-0.3,0-0.6,0-0.9-0.1C3.2,12.7,5,14,7,14.1
					C5.4,15.3,3.4,16,1.1,16C0.7,16,0.4,16,0,16c2.1,1.3,4.6,2,7.3,2c8.7,0,13.5-6.9,13.5-12.9c0-0.2,0-0.4,0-0.6
					C21.7,3.8,22.5,3,23.1,2.1z"/>
			</g>
		</g>
	</g>
</g>
</svg>
