<?xml version="1.0" encoding="UTF-8"?>
<svg width="69px" height="51px" viewBox="0 0 69 51" version="1.1" xmlns="http://www.w3.org/2000/svg" xmlns:xlink="http://www.w3.org/1999/xlink">
    <!-- Generator: Sketch 57.1 (83088) - https://sketch.com -->
    <title>Shape</title>
    <desc>Created with Sketch.</desc>
    <g id="Page-1" stroke="none" stroke-width="1" fill="none" fill-rule="evenodd">
        <g id="TROUVER-UN-BIEN---SINGLE" transform="translate(-1066.000000, -666.000000)" fill="#FFFFFF" fill-rule="nonzero">
            <g id="patrick-perkins-3wylDrjxH-E-unsplash" transform="translate(925.000000, 600.000000)">
                <g id="noun_360-Image_2573830-Copy" transform="translate(141.000000, 66.000000)">
                    <path d="M51.0990374,0.00157024796 C50.8424267,0.0148633157 50.5944454,0.111059288 50.3949893,0.279212011 C50.1290456,0.503993202 49.975365,0.834211339 49.9759434,1.18175447 L49.996763,16.9647944 C45.30229,17.6944628 40.0262467,18.0818374 34.5391475,18.0818374 C28.8722485,18.0818374 23.4307272,17.6684964 18.6223615,16.8921409 L18.643834,1.26089498 C18.6444262,0.911622832 18.4900808,0.580176231 18.2224027,0.355972601 C17.9547256,0.13119141 17.6008403,0.0361230564 17.255693,0.0960610404 C12.2952753,0.961755115 8.12287625,2.198037 5.18883067,3.6729377 C1.79747872,5.3778048 0.0774304775,7.36452345 0.0774304775,9.57600862 C0.0774304775,9.6705315 0.0814820223,9.71193803 0.0878415444,9.85948741 L0.0774323167,9.85948741 L0,40.1331592 C0,47.191813 17.7685263,51 34.4870939,51 C43.482329,51 51.9478277,49.9751136 58.324102,48.1146306 C65.2403561,46.0968016 68.8965401,43.3585396 68.8965401,40.1580264 L69,9.85948741 L68.9913557,9.85948741 C68.9959536,9.71193803 69,9.67731279 69,9.59719868 C69,7.35401551 67.2332043,5.32186574 63.7476177,3.60201414 C60.7268507,2.1115523 56.4424381,0.871230241 51.3571452,0.0164951543 C51.2711448,0.00210197067 51.1845743,-0.0028485511 51.0990374,0.00155191269 L51.0990374,0.00157024796 Z M52.3461965,2.58984238 C62.2011218,4.43534097 66.6325663,7.38700157 66.6325663,9.57427869 L66.6338537,9.57427869 C66.6338537,11.8802867 62.038648,14.0393275 57.7384644,15.291177 C56.0844147,15.7724355 54.2842498,16.1959701 52.3648366,16.5584986 L52.3461965,2.58984238 Z M16.2740169,2.67742078 L16.2549261,16.469634 C14.5072176,16.1278527 12.8613302,15.7343999 11.3402518,15.2911816 C7.04006802,14.0393321 2.44486194,11.8802913 2.44486194,9.57428327 C2.44543907,7.43657279 6.73590807,4.53156261 16.2740169,2.67742078 L16.2740169,2.67742078 Z M2.43575603,13.7423228 C4.21410557,15.1947445 6.98051938,16.4812045 10.6765499,17.5572627 C17.0666972,19.417171 25.5410258,20.4419849 34.5391494,20.4419849 C43.5372756,20.4419849 52.0116015,19.417171 58.4017506,17.5572627 C62.081593,16.4863925 64.8398299,15.2063535 66.6193361,13.7619993 L66.5284527,40.1314301 C66.5284527,42.4385906 61.9473498,44.5976295 57.6593067,45.8483257 C51.492319,47.647139 43.263211,48.6379062 34.4870903,48.6379062 C25.7057673,48.6379062 17.4619716,47.6472839 11.2747482,45.8478948 C6.96936195,44.5960454 2.36808039,42.4364298 2.36808039,40.1344573 L2.43575603,13.7423228 Z M34.500325,22.6695575 C20.9459029,22.6695575 6.53988551,26.134116 6.53988551,32.5547401 C6.53988551,34.2936127 7.66259931,36.8289197 13.0173052,39.0340636 C16.5526114,40.4899442 21.4760494,41.5625233 26.804161,42.0800912 L26.804161,46.2150512 C26.8047523,46.6490506 27.0441464,47.0478435 27.4268729,47.2536028 C27.8101779,47.4593639 28.2755363,47.4397433 28.6397615,47.2017048 L36.4376519,42.1038739 C36.7712372,41.8854348 36.9725205,41.5142566 36.9725205,41.1165702 C36.9725205,40.7188829 36.7712372,40.3475608 36.4376519,40.1296975 L28.6397615,35.0307857 C28.2755363,34.7933248 27.8101779,34.7737785 27.4268729,34.9795387 C27.0441464,35.1852979 26.8047376,35.5840927 26.804161,36.0180894 L26.804161,39.7078333 C15.5559266,38.5977686 8.90688503,35.2578561 8.90688503,32.5547383 C8.90688503,30.8337343 11.5338648,28.9519365 15.9334877,27.521992 C20.8754041,25.9151058 27.4696,25.0303779 34.500325,25.0303779 C41.5310492,25.0303779 48.1248129,25.9156834 53.0667292,27.521992 C57.4663521,28.9519365 60.0926816,30.8337343 60.0926816,32.5547383 C60.0926816,35.4025222 52.8017815,38.9097129 40.6007774,39.8485986 C39.965983,39.8964353 39.4826824,40.4365198 39.5069651,41.070512 C39.5312424,41.704507 40.0538262,42.2059353 40.6903559,42.2059353 C40.7209968,42.2059353 40.7523273,42.2047435 40.7829709,42.2024516 C46.667249,41.7494348 52.0208121,40.642819 55.8573284,39.0855013 C61.3155202,36.8705582 62.4607662,34.3114529 62.4607662,32.5547144 C62.4607662,26.1335127 48.0547481,22.6695575 34.500325,22.6695575 L34.500325,22.6695575 Z M29.1722456,38.2030919 L33.6273127,41.115923 L29.1722456,44.0294022 L29.1722456,38.2030919 Z" id="Shape"></path>
                </g>
            </g>
        </g>
    </g>
</svg>