<?xml version="1.0" encoding="UTF-8"?>
<svg width="10px" height="26px" viewBox="0 0 10 26" version="1.1" xmlns="http://www.w3.org/2000/svg" xmlns:xlink="http://www.w3.org/1999/xlink">
    <!-- Generator: Sketch 57.1 (83088) - https://sketch.com -->
    <title>noun_Heating_1800640</title>
    <desc>Created with Sketch.</desc>
    <g id="Page-1" stroke="none" stroke-width="1" fill="none" fill-rule="evenodd">
        <g id="TROUVER-UN-BIEN---SINGLE" transform="translate(-510.000000, -625.000000)" fill="#818181" fill-rule="nonzero">
            <g id="noun_Heating_1800640" transform="translate(515.000000, 638.000000) scale(-1, 1) translate(-515.000000, -638.000000) translate(510.000000, 625.000000)">
                <g id="Group">
                    <path d="M7.99564103,16.884297 L7.99564103,3.21190099 C7.99564103,1.44081188 6.56051282,0 4.79641026,0 C3.0325641,0 1.5974359,1.44081188 1.5974359,3.21190099 L1.5974359,17.1298812 C0.621025641,18.0316436 0.0428205128,19.2927723 0.00230769231,20.6280396 C-0.0374358974,21.9375644 0.446153846,23.1968911 1.36384615,24.1733069 C2.28,25.1481782 3.50102564,25.7047327 4.80205128,25.7410297 C4.84897436,25.7420594 4.89589744,25.7430891 4.94282051,25.7427112 C6.23769231,25.7427112 7.45589744,25.2467723 8.38717949,24.3380594 C9.35179487,23.3956238 9.88307699,22.1324356 9.88307699,20.7812079 C9.88333333,19.2600792 9.18230769,17.8231287 7.99564103,16.884297 Z M7.67282051,23.6005347 C6.90820513,24.3465545 5.89615385,24.7411881 4.83051282,24.712099 C3.80358974,24.6840396 2.83717949,24.2415248 2.10923077,23.4669307 C1.37948718,22.6907921 0.994871795,21.6937822 1.02641026,20.6589307 C1.06051282,19.536297 1.57487179,18.4787921 2.4374359,17.758 C2.55461538,17.6599208 2.62205128,17.515505 2.62205128,17.3625941 L2.62205128,3.21190099 C2.62205128,2.00817822 3.5974359,1.02893069 4.79641026,1.02893069 C5.99512821,1.02893069 6.97076923,2.00817822 6.97076923,3.21190099 L6.97076923,17.142495 C6.97076923,17.3103366 7.05179487,17.4671089 7.18846154,17.5633861 C8.23410256,18.3006535 8.85846166,19.5038614 8.85846166,20.7812079 C8.85871795,21.852099 8.4374359,22.8537426 7.67282051,23.6005347 Z" id="Shape"></path>
                    <path d="M6.59974359,18.4056832 L5.94615385,17.9451485 L5.94615385,10.2105347 C5.94615385,9.92659406 5.71692308,9.69619802 5.43384615,9.69619802 L4.15871795,9.69619802 C3.87589744,9.69619802 3.64641026,9.92659406 3.64641026,10.2105347 L3.64641026,18.085703 L3.0925641,18.5488119 C2.45538462,19.082198 2.07564103,19.8629703 2.05051282,20.6905941 C2.02717949,21.4494851 2.31282051,22.1849505 2.85435897,22.7605545 C3.39384615,23.3351287 4.10589744,23.6630891 4.86589744,23.684198 L4.94282051,23.6852277 C5.71512821,23.6852277 6.44102564,23.3832673 6.9874359,22.8346931 C7.53384615,22.285604 7.83461538,21.5563168 7.83461538,20.7812079 C7.83435897,19.8387723 7.37307692,18.9506535 6.59974359,18.4056832 Z" id="Path"></path>
                    <path d="M4.15871795,8.17326733 L5.43384615,8.17326733 C5.71692308,8.17326733 5.94615385,7.94287129 5.94615385,7.65893069 C5.94615385,7.3749901 5.71692308,7.14459406 5.43384615,7.14459406 L4.15871795,7.14459406 C3.87589744,7.14459406 3.64641026,7.3749901 3.64641026,7.65893069 C3.64641026,7.94312871 3.87589744,8.17326733 4.15871795,8.17326733 Z" id="Path"></path>
                    <path d="M4.15871795,5.62166337 L5.43384615,5.62166337 C5.71692308,5.62166337 5.94615385,5.39126733 5.94615385,5.10732673 C5.94615385,4.82338614 5.71692308,4.5929901 5.43384615,4.5929901 L4.15871795,4.5929901 C3.87589744,4.5929901 3.64641026,4.82338614 3.64641026,5.10732673 C3.64641026,5.39126733 3.87589744,5.62166337 4.15871795,5.62166337 Z" id="Path"></path>
                </g>
            </g>
        </g>
    </g>
</svg>