<?xml version="1.0" encoding="UTF-8"?>
<svg width="26px" height="36px" viewBox="0 0 26 36" version="1.1" xmlns="http://www.w3.org/2000/svg" xmlns:xlink="http://www.w3.org/1999/xlink">
    <!-- Generator: Sketch 59.1 (86144) - https://sketch.com -->
    <title>noun_keys_1561277</title>
    <desc>Created with Sketch.</desc>
    <g id="Page-1" stroke="none" stroke-width="1" fill="none" fill-rule="evenodd">
        <g id="TROUVER-UN-BIEN---SINGLE" transform="translate(-495.000000, -617.000000)" fill="#818181" fill-rule="nonzero">
            <g id="noun_keys_1561277" transform="translate(495.000000, 617.000000)">
                <path d="M25.9386912,6.00081621 C25.6789918,4.18031729 24.644398,2.55935094 23.0247799,1.43648311 C21.4053953,0.313824652 19.3966952,-0.175270856 17.3644072,0.056086402 C15.333754,0.288909285 13.5254335,1.216432 12.2729444,2.6684343 C11.0206888,4.12022723 10.473732,5.92230129 10.7331979,7.74300959 C10.7463054,7.83492439 10.7673534,7.9243005 10.7843437,8.0150114 C9.36688592,8.48233213 8.12700809,9.39535575 7.3673815,10.6838639 C6.11419176,12.8094194 6.5149509,15.4552669 8.32677463,17.2068821 L0.0416164021,31.2572811 C-0.0508664901,31.4143109 0.0159267311,31.6088185 0.191083683,31.6919397 L3.25516295,33.1441513 C3.33923832,33.1841416 3.43779327,33.1918884 3.52864134,33.1671824 C3.61948942,33.1420576 3.69562433,33.0855269 3.73999741,33.0101526 L4.08143673,32.4310267 L6.63032098,33.6388999 C6.68380224,33.664234 6.74125373,33.6761683 6.79777107,33.6761683 C6.92645307,33.6761683 7.05093129,33.6139846 7.11515549,33.5049011 L7.94376474,32.099589 C7.98813782,32.0242147 7.99747955,31.9360686 7.96945441,31.8544132 C7.94142927,31.7729671 7.87837278,31.7047114 7.79429746,31.6649306 L5.24541321,30.4570573 L5.43925357,30.1283415 L6.98717409,30.8619848 C7.07124946,30.9019751 7.16957091,30.9097219 7.26065249,30.8850158 C7.35150057,30.859891 7.42763547,30.8033603 7.47200855,30.727986 L8.3006178,29.3226739 C8.3931007,29.1656441 8.32630747,28.9711365 8.15115052,28.8880154 L6.60323,28.1543721 L12.0249221,18.9595441 C12.5013491,19.0238216 12.9785935,19.0358344 13.4485688,19.0024394 C13.6564217,19.1529001 13.8728282,19.294384 14.1001819,19.4199554 L10.2992757,34.9432941 C10.2567709,35.116655 10.3791473,35.2881316 10.5727541,35.3262375 L13.9579544,35.9924626 C13.9834106,35.9974876 14.0091003,36 14.03479,36 C14.1027508,36 14.1700111,35.9826221 14.2281633,35.9493317 C14.3082684,35.9032696 14.3647857,35.8306172 14.3851039,35.7472867 L14.541811,35.1076519 L17.3581015,35.6616531 C17.4505844,35.6796592 17.5484388,35.664375 17.6283104,35.6185223 C17.7084155,35.5724602 17.7649328,35.4998077 17.785251,35.4164773 L18.1652249,33.8639759 C18.2077296,33.690615 18.0853533,33.5191384 17.8917465,33.4810325 L15.0756895,32.9266126 L15.1646692,32.5635597 L16.8751355,32.9000222 C17.0685088,32.9393844 17.2597802,32.8284166 17.3022849,32.6548464 L17.6824923,31.102345 C17.7030441,31.0190145 17.6855284,30.9319153 17.6343826,30.8601003 C17.5830032,30.7882854 17.5019639,30.7376171 17.4090139,30.7194016 L15.6987813,30.3827297 L18.1860102,20.223948 C20.8313476,19.9364787 23.0439304,18.1490608 23.6186788,15.800523 C23.9196569,14.5716862 23.7565273,13.3187715 23.1745391,12.1970553 C25.2169569,10.702341 26.2740584,8.3543266 25.9386912,6.00081621 Z M11.4450358,7.66135409 C11.2096248,6.01128488 11.7054358,4.37775614 12.8406866,3.06184633 C13.9757037,1.74593652 15.6147059,0.905094243 17.4554889,0.694255563 C19.29417,0.4825794 21.1179044,0.927497165 22.5859533,1.94525971 C24.0537687,2.96302226 24.9916759,4.43219313 25.2268533,6.08247172 C25.5249121,8.17369 24.6113225,10.2614013 22.8311147,11.6194213 C22.8083443,11.5860524 22.7898361,11.551061 22.7662483,11.5180062 C21.8533301,10.2393648 20.4396966,9.35581042 18.7855142,9.0302353 C18.1785953,8.91057861 17.5597949,8.87213245 16.9458405,8.91403324 C16.6358127,8.6905013 16.3001243,8.48819459 15.9355935,8.31543561 C14.5117425,7.6405215 12.9297539,7.50788365 11.4759511,7.825712 C11.4664633,7.77064683 11.452947,7.7168903 11.4450358,7.66135409 Z M11.8911022,18.2862003 C11.7180471,18.2543755 11.5487287,18.3441966 11.4882412,18.4928515 C11.4880076,18.4934796 11.4877741,18.4941077 11.4875406,18.4947358 L5.80124468,28.138041 C5.70876178,28.2950708 5.775555,28.4895784 5.95071196,28.5726995 L7.49863248,29.3063428 L7.00539045,30.1429976 L5.45746993,29.4093544 C5.28207942,29.3262332 5.06535187,29.3865327 4.97263542,29.5433531 L4.44342784,30.4407261 C4.39905475,30.5161004 4.38971303,30.6042465 4.41773816,30.685902 C4.4457633,30.7673481 4.5088198,30.8356037 4.59289512,30.8753846 L7.14177937,32.0832579 L6.64853734,32.9199127 L4.09965309,31.7120394 C4.04617183,31.6867053 3.98872034,31.674771 3.932203,31.674771 C3.803521,31.674771 3.67904278,31.7369548 3.61481858,31.8460382 L3.27337926,32.4251641 L0.843601777,31.2736122 L9.04842136,17.3593056 C9.05262515,17.35449 9.05682888,17.3496745 9.06079912,17.3446495 C9.16519266,17.2160944 9.14907822,17.0383367 9.02273169,16.9267408 C7.27186263,15.3777988 6.85195298,12.934415 8.00168334,10.9845235 C8.65823006,9.87097278 9.71921421,9.0726594 10.9364676,8.64901914 C11.0408611,9.0013417 11.1747978,9.34178231 11.3364093,9.66895392 C10.3963418,10.0049716 9.57853393,10.6277256 9.06967374,11.4905782 C7.93208759,13.4201605 8.75742727,15.8193666 10.909289,16.8392228 C11.5543337,17.1449075 12.2577641,17.300053 12.9672667,17.300053 C13.4042249,17.300053 13.8437521,17.2412192 14.273237,17.1222952 C14.2871912,17.118448 14.3002696,17.1129781 14.3141654,17.109 C14.3241786,17.1063829 14.3336078,17.1029282 14.3434166,17.0994997 C15.4378266,16.7792374 16.3359147,16.1047682 16.875369,15.1899911 C17.2155822,14.6130374 17.3767267,13.9941306 17.3828572,13.3825256 C17.3834118,13.3800916 17.3851634,13.3782335 17.3856597,13.3757733 C17.3884622,13.362007 17.3839957,13.3491568 17.3847839,13.3355475 C17.3846963,13.3072822 17.3837037,13.2792 17.3829447,13.250987 C17.382682,13.2499401 17.3830031,13.2487885 17.3827404,13.2477417 C17.3593862,12.414463 17.0412135,11.6037705 16.4745515,10.9377023 C16.46448,10.9248783 16.4559265,10.9117401 16.4440158,10.9005124 C16.0731501,10.4750402 15.6018027,10.1096318 15.0357538,9.84134636 C14.870464,9.76298847 14.7014083,9.69855393 14.5308638,9.64071462 C14.5227482,9.63841151 14.51545,9.6351139 14.5071885,9.63333422 C13.6940514,9.36232696 12.834235,9.31875116 12.0260024,9.47863369 C11.8593406,9.15227341 11.7247908,8.81013163 11.6216526,8.45563683 C12.9175222,8.16698989 14.3299589,8.28209273 15.6002264,8.88409264 C18.3410827,10.1828338 19.392258,13.2388433 17.9433596,15.6960457 C16.7936291,17.645728 14.3061665,18.7108088 11.8911022,18.2862003 Z M14.7003865,10.4100038 C15.0289809,10.5657251 15.3245875,10.7612795 15.5811633,10.9895747 C15.0580278,11.2065113 14.5924314,11.5117773 14.2052469,11.8832575 C13.8793381,11.6677341 13.5734557,11.4299648 13.2955692,11.1676988 C13.6341184,10.8380932 14.0242222,10.5507287 14.4538822,10.3101067 C14.5362936,10.3425072 14.6195807,10.3717147 14.7003865,10.4100038 Z M14.3511527,16.4137768 C13.7973356,15.666629 13.5989995,14.7541812 13.8150264,13.8711502 C13.9149243,13.4631344 14.1028385,13.0837242 14.3553565,12.7453511 C15.0547874,13.1249969 15.8293316,13.4069439 16.6593421,13.5730291 C16.6238144,14.027421 16.4856447,14.4745372 16.2410672,14.8893315 C15.8278719,15.5902863 15.1629469,16.1224342 14.3511527,16.4137768 Z M12.2738786,16.5966904 C11.7746521,15.6332078 11.6605081,14.6192925 11.9343076,13.5011879 C12.0971161,12.8366639 12.4111433,12.2160036 12.8425549,11.6702989 C13.1258129,11.9310731 13.4325128,12.17091 13.7597352,12.3886318 C13.4581149,12.7927741 13.2337096,13.2459621 13.1143985,13.7333827 C12.8724776,14.7211263 13.0625521,15.741349 13.6310532,16.5997786 C13.1786519,16.6740275 12.7198866,16.6741584 12.2738786,16.5966904 Z M14.8183839,12.2440073 C15.1681431,11.930157 15.5869143,11.6800347 16.0556635,11.5110445 C16.2473436,11.7715046 16.4000221,12.0571941 16.5054374,12.363664 C16.5675014,12.5439604 16.6083421,12.7267169 16.6355791,12.910023 C15.986097,12.7638807 15.3772514,12.5370511 14.8183839,12.2440073 Z M12.831666,10.6752533 C12.6673979,10.4837293 12.5143107,10.2842753 12.3754988,10.075792 C12.5746523,10.0462704 12.7757033,10.0262229 12.9789438,10.0262229 C13.1769587,10.0262229 13.3754988,10.046061 13.5734849,10.0751901 C13.307947,10.257999 13.060421,10.4587092 12.831666,10.6752533 Z M12.3550638,11.1782722 C11.8176822,11.8218327 11.4292133,12.564636 11.2336797,13.3634204 C10.9788555,14.4037691 11.033271,15.3973752 11.3842855,16.3291377 C11.3378397,16.3092473 11.2904014,16.2922619 11.2446562,16.2705656 C9.44240774,15.4165328 8.75135512,13.4071794 9.70397548,11.791238 C10.1399996,11.0518893 10.8480716,10.5264675 11.6583186,10.2500427 C11.8631355,10.5769789 12.0953352,10.8877408 12.3550638,11.1782722 Z M21.0373321,15.2927933 C20.6134523,17.0233665 18.7432721,18.1388278 16.8151734,17.8468047 C17.5320909,17.3590963 18.1416079,16.7359758 18.5776612,15.9967056 C19.0128095,15.2586394 19.2421483,14.472836 19.2945495,13.6891788 C19.29887,13.6887077 19.3031614,13.688446 19.3074819,13.6879487 C19.8365143,13.6272828 20.3545995,13.51553 20.8542055,13.360149 C21.1211447,13.9564174 21.2007244,14.6254429 21.0373321,15.2927933 Z M19.2948706,13.0386043 C19.2643933,12.5415788 19.1648457,12.0516458 18.9937758,11.5809228 C19.6280192,11.8488679 20.1510671,12.2724558 20.5208234,12.7847394 C20.1233339,12.9022763 19.7125908,12.9864442 19.2948706,13.0386043 Z M22.9180509,15.6627556 C22.3907116,17.8172046 20.3093797,19.4392178 17.8564816,19.6069256 C17.6794562,19.6190692 17.5426003,19.7461587 17.5297554,19.9050729 C17.5297554,19.9050729 17.5297554,19.9050729 17.5295219,19.9052823 L14.9210843,30.5590219 C14.9005325,30.6423524 14.9180482,30.7294516 14.969194,30.8012666 C15.0205734,30.8730815 15.1016127,30.9237498 15.1945626,30.9419653 L16.9047953,31.2786372 L16.6784925,32.2028099 L14.9680263,31.8663474 C14.8753099,31.8481319 14.7781561,31.8634162 14.6978175,31.9094782 C14.6177124,31.9555403 14.5611951,32.0281928 14.5408768,32.1115232 L14.2982261,33.1029048 C14.2557213,33.2762657 14.3780976,33.4477422 14.5717045,33.4858481 L17.3877615,34.040268 L17.1614587,34.9644408 L14.3451681,34.4104396 C14.1503935,34.37024 13.9602899,34.4820452 13.9180187,34.6556155 L13.7613116,35.2952502 L11.0769726,34.7670019 L14.8412127,19.3931556 C14.8440152,19.3877119 14.8463506,19.3820589 14.8489196,19.3764058 C14.9105749,19.2275415 14.8419133,19.0606712 14.6873081,18.9832032 C14.6100931,18.9446262 14.5370818,18.8991922 14.4618227,18.8572391 C14.9989415,18.7389694 15.5148372,18.5553231 15.9994674,18.3191503 C16.1570795,18.3673584 16.315509,18.4153572 16.4797478,18.4476268 C16.7973658,18.5102294 17.1170856,18.5410072 17.4347036,18.5410072 C18.2686843,18.5410072 19.0865506,18.3280748 19.8058619,17.9154004 C20.7991187,17.3456963 21.4852669,16.4631888 21.73796,15.4305608 C21.9571398,14.5356479 21.8102999,13.638144 21.3909157,12.8641964 C21.3877045,12.8543297 21.3891933,12.8442798 21.3848436,12.834544 C21.3743634,12.8110157 21.3559427,12.7934807 21.3404413,12.7735902 C20.7943603,11.8272239 19.8316392,11.0828503 18.6228809,10.7771918 C18.3744499,10.3354146 18.0596929,9.9229496 17.6857036,9.54845966 C18.0024165,9.56193805 18.3188376,9.59674634 18.6318431,9.65835434 C20.0987243,9.9470798 21.3523812,10.7307633 22.1620735,11.8647278 C22.9715322,12.9989019 23.2401062,14.3476833 22.9180509,15.6627556 Z" id="Shape"></path>
            </g>
        </g>
    </g>
</svg>