<?xml version="1.0" encoding="UTF-8"?>
<svg width="35px" height="25px" viewBox="0 0 35 25" version="1.1" xmlns="http://www.w3.org/2000/svg" xmlns:xlink="http://www.w3.org/1999/xlink">
    <!-- Generator: Sketch 57.1 (83088) - https://sketch.com -->
    <title>noun_Bed_1800653</title>
    <desc>Created with Sketch.</desc>
    <g id="Page-1" stroke="none" stroke-width="1" fill="none" fill-rule="evenodd">
        <g id="TROUVER-UN-BIEN---SINGLE" transform="translate(-180.000000, -626.000000)" fill="#818181" fill-rule="nonzero">
            <g id="noun_Bed_1800653" transform="translate(180.000000, 626.000000)">
                <path d="M32.2888125,11.9672108 L32.2888125,0.70242477 C32.2888125,0.314686297 31.9755606,0 31.5888083,0 L3.51128769,0 C3.12488534,0 2.81128344,0.314686297 2.81128344,0.70242477 L2.81128344,11.8674665 C0.875071671,13.7640134 0.114167048,16.9027985 0.00111636109,18.8811778 C-0.00973370483,19.0743446 0.058866712,19.2632969 0.191167516,19.4034306 C0.32346832,19.5439156 0.507569438,19.6236408 0.700070608,19.6236408 L1.8186774,19.6236408 L1.8186774,24.2975752 C1.8186774,24.6856649 2.13227931,25 2.51868166,25 L32.4813137,25 C32.8680661,25 33.181318,24.6856649 33.181318,24.2975752 L33.181318,19.6236408 L34.3002748,19.6236408 C34.4931259,19.6236408 34.676877,19.5439156 34.8088278,19.4034306 C34.9414787,19.2632969 35.0097291,19.0739934 34.998879,18.8811778 C34.8886283,16.9372173 34.1515239,13.872538 32.2888125,11.9672108 Z M31.7813095,23.5951505 L3.21903591,23.5951505 L3.21903591,19.7230339 L31.7816595,19.7230339 L31.7816595,23.5951505 L31.7813095,23.5951505 Z M30.888804,1.40484954 L30.888804,10.9037397 C30.2882004,10.581678 29.6067462,10.3702481 28.8398916,10.2964935 C29.1219933,8.73605687 29.4800455,5.85646652 28.5119396,4.88501307 C27.1864815,3.55497176 24.2667638,3.45136411 23.4033085,3.45136411 C22.5405533,3.45136411 19.6201356,3.55497176 18.2946775,4.88501307 C17.3353217,5.84768621 17.6783238,8.68477986 17.9590255,10.254348 L17.0409699,10.254348 C17.3216716,8.68477986 17.6650237,5.84768621 16.7053179,4.88501307 C15.3802098,3.55497176 12.4601421,3.45136411 11.5966868,3.45136411 C10.7335816,3.45136411 7.81351383,3.55497176 6.48840578,4.88501307 C5.52029989,5.85646652 5.87835207,8.73605687 6.16045378,10.2964935 C5.43699939,10.3660335 4.78634544,10.553581 4.21094194,10.8464921 L4.21094194,1.40484954 L30.888804,1.40484954 Z M19.2844835,5.87824169 C19.8934872,5.26713214 21.5493473,4.85621365 23.4033085,4.85621365 C25.2579698,4.85621365 26.9127799,5.26713214 27.5221336,5.87824169 C27.8542856,6.21154224 27.8070353,8.1670928 27.4426831,10.1546037 L19.363934,10.1546037 C18.9988818,8.16779523 18.9516315,6.21259588 19.2844835,5.87824169 Z M7.47856179,5.87824169 C8.08756549,5.26713214 9.74272555,4.85621365 11.5970368,4.85621365 C13.4516981,4.85621365 15.1065081,5.26713214 15.7158618,5.87824169 C16.0480139,6.21154224 16.0004136,8.1670928 15.6360614,10.1546037 L7.55801228,10.1546037 C7.19296006,8.16779523 7.14570977,6.21259588 7.47856179,5.87824169 Z M1.48232536,18.2187913 C1.74972699,16.3601753 2.81513346,11.6591975 6.74460733,11.6591975 L28.255388,11.6591975 C32.1743618,11.6591975 33.2464184,16.3598241 33.51697,18.2187913 L1.48232536,18.2187913 Z" id="Shape"></path>
            </g>
        </g>
    </g>
</svg>