<?xml version="1.0" encoding="UTF-8"?>
<svg width="18px" height="18px" viewBox="0 0 18 18" version="1.1" xmlns="http://www.w3.org/2000/svg" xmlns:xlink="http://www.w3.org/1999/xlink">
    <!-- Generator: Sketch 57.1 (83088) - https://sketch.com -->
    <title>Instagram</title>
    <desc>Created with Sketch.</desc>
    <g id="Symbols" stroke="none" stroke-width="1" fill="none" fill-rule="evenodd">
        <g id="FOOTER" transform="translate(-970.000000, -214.000000)" fill="#FFFFFF" fill-rule="nonzero">
            <g id="Group-2">
                <g id="if_Instagram_1298747" transform="translate(970.000000, 214.000000)">
                    <path d="M14.878125,4.190625 C14.878125,4.78125 14.4,5.2734375 13.7953125,5.2734375 C13.190625,5.2734375 12.7125,4.7953125 12.7125,4.190625 C12.7125,3.5859375 13.190625,3.1078125 13.7953125,3.1078125 C14.4,3.121875 14.878125,3.6 14.878125,4.190625 Z M9,11.9953125 C7.340625,11.9953125 6.0046875,10.6453125 6.0046875,9 C6.0046875,7.3546875 7.340625,6.0046875 9,6.0046875 C10.659375,6.0046875 11.9953125,7.340625 11.9953125,9 C11.9953125,10.659375 10.659375,11.9953125 9,11.9953125 Z M9,4.3734375 C6.440625,4.3734375 4.3734375,6.440625 4.3734375,9 C4.3734375,11.559375 6.440625,13.6265625 9,13.6265625 C11.559375,13.6265625 13.6265625,11.559375 13.6265625,9 C13.6265625,6.440625 11.559375,4.3734375 9,4.3734375 Z M9,1.6171875 C11.4046875,1.6171875 11.6859375,1.63125 12.6421875,1.6734375 C13.5140625,1.715625 13.9921875,1.85625 14.315625,1.9828125 C14.7375,2.1515625 15.0328125,2.334375 15.35625,2.6578125 C15.665625,2.9671875 15.8625,3.2765625 16.03125,3.6984375 C16.1578125,4.021875 16.2984375,4.4859375 16.340625,5.371875 C16.3828125,6.3140625 16.396875,6.609375 16.396875,9.0140625 C16.396875,11.41875 16.3828125,11.7 16.340625,12.65625 C16.2984375,13.528125 16.1578125,14.00625 16.03125,14.3296875 C15.8625,14.7515625 15.6796875,15.046875 15.35625,15.3703125 C15.046875,15.6796875 14.7375,15.8765625 14.315625,16.0453125 C13.9921875,16.171875 13.528125,16.3125 12.6421875,16.3546875 C11.7,16.396875 11.4046875,16.4109375 9,16.4109375 C6.5953125,16.4109375 6.3140625,16.396875 5.3578125,16.3546875 C4.4859375,16.3125 4.0078125,16.171875 3.684375,16.0453125 C3.2625,15.8765625 2.9671875,15.69375 2.64375,15.3703125 C2.334375,15.0609375 2.1375,14.7515625 1.96875,14.3296875 C1.8421875,14.00625 1.7015625,13.5421875 1.659375,12.65625 C1.6171875,11.7140625 1.603125,11.41875 1.603125,9.0140625 C1.603125,6.609375 1.6171875,6.328125 1.659375,5.371875 C1.7015625,4.5 1.8421875,4.021875 1.96875,3.6984375 C2.1375,3.2765625 2.3203125,2.98125 2.64375,2.6578125 C2.953125,2.3484375 3.2625,2.1515625 3.684375,1.9828125 C4.0078125,1.85625 4.471875,1.715625 5.3578125,1.6734375 C6.3140625,1.63125 6.5953125,1.6171875 9,1.6171875 Z M9,0 C6.553125,0 6.24375,0.0140625 5.2875,0.05625 C4.33125,0.0984375 3.6703125,0.253125 3.1078125,0.478125 C2.5171875,0.703125 2.0109375,1.0125 1.51875,1.51875 C1.0265625,2.025 0.703125,2.5171875 0.478125,3.1078125 C0.253125,3.684375 0.0984375,4.33125 0.05625,5.2875 C0.0140625,6.24375 0,6.553125 0,9 C0,11.446875 0.0140625,11.75625 0.05625,12.7125 C0.0984375,13.66875 0.253125,14.3296875 0.478125,14.8921875 C0.703125,15.4828125 1.0125,15.9890625 1.51875,16.48125 C2.025,16.9734375 2.5171875,17.2828125 3.1078125,17.521875 C3.684375,17.746875 4.33125,17.9015625 5.2875,17.94375 C6.24375,17.9859375 6.553125,18 9,18 C11.446875,18 11.75625,17.9859375 12.7125,17.94375 C13.66875,17.9015625 14.3296875,17.746875 14.8921875,17.521875 C15.4828125,17.296875 15.9890625,16.9875 16.48125,16.48125 C16.9875,15.975 17.2828125,15.4828125 17.521875,14.8921875 C17.746875,14.315625 17.9015625,13.66875 17.94375,12.7125 C17.9859375,11.75625 18,11.446875 18,9 C18,6.553125 17.9859375,6.24375 17.94375,5.2875 C17.9015625,4.33125 17.746875,3.6703125 17.521875,3.1078125 C17.296875,2.5171875 16.9875,2.0109375 16.48125,1.51875 C15.975,1.0125 15.4828125,0.7171875 14.8921875,0.478125 C14.315625,0.253125 13.66875,0.0984375 12.7125,0.05625 C11.75625,0.0140625 11.446875,0 9,0 Z" id="Instagram"></path>
                </g>
            </g>
        </g>
    </g>
</svg>