<?xml version="1.0" encoding="UTF-8"?>
<svg width="26px" height="26px" viewBox="0 0 26 26" version="1.1" xmlns="http://www.w3.org/2000/svg" xmlns:xlink="http://www.w3.org/1999/xlink">
    <!-- Generator: Sketch 57.1 (83088) - https://sketch.com -->
    <title>noun_size_1286679</title>
    <desc>Created with Sketch.</desc>
    <g id="Page-1" stroke="none" stroke-width="1" fill="none" fill-rule="evenodd">
        <g id="TROUVER-UN-BIEN---SINGLE" transform="translate(-352.000000, -625.000000)" fill="#818181" fill-rule="nonzero">
            <g id="noun_size_1286679" transform="translate(352.000000, 625.000000)">
                <g id="Group">
                    <path d="M25.1875,0 L0.8125,0 C0.363768641,0 0,0.363768641 0,0.8125 L0,25.1875 C0,25.6362314 0.363768641,26 0.8125,26 L25.1875,26 C25.6362314,26 26,25.6362314 26,25.1875 L26,0.8125 C26,0.363768641 25.6362314,0 25.1875,0 Z M24.375,24.375 L1.625,24.375 L1.625,1.625 L24.375,1.625 L24.375,24.375 Z" id="Shape"></path>
                    <path d="M16.014375,11.139375 L20.3125,6.833125 L20.3125,10.5625 L21.9375,10.5625 L21.9375,4.875 C21.9375,4.42626864 21.5737314,4.0625 21.125,4.0625 L15.4375,4.0625 L15.4375,5.6875 L19.166875,5.6875 L14.86875,9.985625 L16.014375,11.139375 Z" id="Path"></path>
                    <path d="M4.875,21.9375 L10.5625,21.9375 L10.5625,20.3125 L6.833125,20.3125 L11.13125,16.014375 L9.985625,14.86875 L5.6875,19.166875 L5.6875,15.4375 L4.0625,15.4375 L4.0625,21.125 C4.0625,21.5737314 4.42626864,21.9375 4.875,21.9375 Z" id="Path"></path>
                </g>
            </g>
        </g>
    </g>
</svg>