<?xml version="1.0" encoding="UTF-8"?>
<svg width="12px" height="16px" viewBox="0 0 12 16" version="1.1" xmlns="http://www.w3.org/2000/svg" xmlns:xlink="http://www.w3.org/1999/xlink">
    <!-- Generator: Sketch 57.1 (83088) - https://sketch.com -->
    <title>Shape</title>
    <desc>Created with Sketch.</desc>
    <g id="Page-1" stroke="none" stroke-width="1" fill="none" fill-rule="evenodd">
        <g id="CONCEPT" transform="translate(-761.000000, -4790.000000)" fill="#417C82" fill-rule="nonzero">
            <path d="M767.000353,4798.24749 C765.5038,4798.24749 764.289308,4797.09564 764.289308,4795.67465 C764.289308,4794.25232 765.5038,4793.10114 767.000353,4793.10114 C768.496907,4793.10114 769.711399,4794.25299 769.711399,4795.67465 C769.711399,4797.09497 768.496907,4798.24749 767.000353,4798.24749 M767.000353,4790 C763.686303,4790 761,4792.54953 761,4795.6953 C761,4798.66653 763.717408,4802.49915 765.532077,4804.36516 C766.210015,4805.06133 766.999647,4806 766.999647,4806 C766.999647,4806 767.847953,4805.056 768.575376,4804.33918 C770.38863,4802.55111 773,4798.96099 773,4795.6953 C773,4792.54953 770.313697,4790 767.000353,4790" id="Shape"></path>
        </g>
    </g>
</svg>