<?xml version="1.0" encoding="UTF-8"?>
<svg width="16px" height="15px" viewBox="0 0 16 15" version="1.1" xmlns="http://www.w3.org/2000/svg" xmlns:xlink="http://www.w3.org/1999/xlink">
    <!-- Generator: Sketch 57.1 (83088) - https://sketch.com -->
    <title>Path</title>
    <desc>Created with Sketch.</desc>
    <g id="Page-1" stroke="none" stroke-width="1" fill="none" fill-rule="evenodd">
        <g id="CONCEPT" transform="translate(-759.000000, -4824.000000)" fill="#417C82">
            <path d="M762.471349,4824.00133 C760.454063,4823.93598 759.152589,4826.28863 759.412884,4828.18383 C759.998547,4832.95448 765.529814,4838.37865 770.215122,4838.96682 C772.037186,4839.22822 774.37984,4837.92119 774.37984,4835.8953 C774.249693,4835.50319 774.054471,4835.37249 774.054471,4835.37249 C774.054471,4835.37249 771.646744,4834.06546 771.191228,4833.7387 C770.800785,4833.47729 770.800785,4833.608 770.54049,4833.7387 C770.280195,4833.80405 769.173942,4835.24178 768.848574,4835.43784 C767.547099,4836.22205 762.14598,4830.79788 762.926865,4829.49085 C763.122086,4829.22945 764.553708,4828.05312 764.683855,4827.85707 C764.748929,4827.59566 764.879076,4827.59566 764.618782,4827.1382 C764.358487,4826.68074 762.991939,4824.32809 762.991939,4824.32809 C762.991939,4824.32809 762.926865,4824.13203 762.471349,4824.00133 Z" id="Path"></path>
        </g>
    </g>
</svg>