<?xml version="1.0" encoding="UTF-8"?>
<svg width="24px" height="18px" viewBox="0 0 24 18" version="1.1" xmlns="http://www.w3.org/2000/svg" xmlns:xlink="http://www.w3.org/1999/xlink">
    <!-- Generator: Sketch 57.1 (83088) - https://sketch.com -->
    <title>Path</title>
    <desc>Created with Sketch.</desc>
    <g id="Symbols" stroke="none" stroke-width="1" fill="none" fill-rule="evenodd">
        <g id="FOOTER" transform="translate(-1017.000000, -215.000000)" fill="#FFFFFF" fill-rule="nonzero">
            <g id="Group-2">
                <g id="if_03-twitter_104501" transform="translate(1017.000000, 215.000000)">
                    <path d="M23.1428571,2.13073887 C22.2920824,2.49268122 21.3764779,2.7368237 20.4157742,2.84608083 C21.3966785,2.28405855 22.148799,1.39381526 22.5034842,0.331817955 C21.5860005,0.852925014 20.5703324,1.2310536 19.4884251,1.4351801 C18.6226174,0.552130689 17.3885008,0 16.0228453,0 C13.4009935,0 11.2752312,2.03452066 11.2752312,4.54428736 C11.2752312,4.89993506 11.3170418,5.2465904 11.398314,5.57975721 C7.45214751,5.39001848 3.95321322,3.58120597 1.61135132,0.831792976 C1.20264122,1.50262277 0.968689918,2.28315931 0.968689918,3.11675076 C0.968689918,4.69311086 1.80678052,6.08422841 3.08082856,6.8989359 C2.30287002,6.87510616 1.57048031,6.67053005 0.930167816,6.33016936 C0.929698035,6.3490533 0.929698035,6.36838687 0.929698035,6.38772044 C0.929698035,8.58904931 2.56641757,10.4252885 4.73868827,10.8434331 C4.34031336,10.9468452 3.92079828,11.0025978 3.48765953,11.0025978 C3.18136185,11.0025978 2.88399001,10.9742719 2.59413469,10.9207673 C3.19874377,12.7259829 4.95196917,14.0402158 7.02934396,14.0766349 C5.40436897,15.2955488 3.35752999,16.0221312 1.13264374,16.0221312 C0.749771634,16.0221312 0.371597345,16.0005495 0,15.9582855 C2.10180344,17.248239 4.59728397,18 7.27832827,18 C16.0120403,18 20.7873716,11.0758855 20.7873716,5.07078983 C20.7873716,4.87385722 20.7831435,4.67737423 20.7742177,4.4822401 C21.7015668,3.84288355 22.5067727,3.0421142 23.1428571,2.13073887 Z" id="Path"></path>
                </g>
            </g>
        </g>
    </g>
</svg>