<?xml version="1.0" encoding="UTF-8"?>
<svg width="172px" height="53px" viewBox="0 0 172 53" version="1.1" xmlns="http://www.w3.org/2000/svg" xmlns:xlink="http://www.w3.org/1999/xlink">
    <!-- Generator: Sketch 59.1 (86144) - https://sketch.com -->
    <title>Group 26</title>
    <desc>Created with Sketch.</desc>
    <defs>
        <polygon id="path-1" points="0 0.0162452132 27.3013528 0.0162452132 27.3013528 31.2012428 0 31.2012428"></polygon>
        <polygon id="path-3" points="0.118709618 0.10226222 40.9213936 0.10226222 40.9213936 41.0454545 0.118709618 41.0454545"></polygon>
        <polygon id="path-5" points="0.100548037 0.117419318 8.69743853 0.117419318 8.69743853 8.76282341 0.100548037 8.76282341"></polygon>
    </defs>
    <g id="Page-1" stroke="none" stroke-width="1" fill="none" fill-rule="evenodd">
        <g id="POSTER-ANNONCE-Copy-3" transform="translate(-939.000000, -680.000000)">
            <g id="Group-26" transform="translate(939.000000, 680.000000)">
                <path d="M68.356575,48.8568939 C67.357727,48.8568939 66.396117,48.8459683 65.4338071,48.8636364 C65.1835001,48.8683728 65.1760805,48.7033812 65.1268031,48.5592728 C64.3589431,46.2661241 63.5950028,43.9707627 62.8296627,41.6766459 C61.4889524,37.6558563 60.1502021,33.6349285 58.8094919,29.6152453 C58.7833133,29.5382123 58.750695,29.4638071 58.6860183,29.2997835 C58.6192418,29.4763923 58.5757041,29.5841279 58.538606,29.6939379 C56.4269559,35.9697054 54.3137659,42.2467176 52.2112154,48.5252511 C52.1267998,48.7765418 52.0339846,48.8683728 51.7475595,48.8582769 C50.9174027,48.8303404 50.0837461,48.8343511 49.2526094,48.8582769 C49.0014624,48.8656068 48.9092072,48.7907866 48.8289914,48.5685389 C47.3151102,44.3716937 45.7926895,40.1765081 44.2720886,35.9813226 C42.4902614,31.068776 40.710534,26.1559529 38.9264669,21.2445127 C38.6187629,20.3970117 38.2496021,19.5730216 37.4768423,19.0360035 C37.0883625,18.7660423 36.6324063,18.5926144 36.1590909,18.3498983 L36.1590909,17.5931219 L48.2649608,17.5931219 L48.2649608,18.4562508 C48.2015441,18.4716021 48.145967,18.4836342 48.0903899,18.4980174 C47.0797825,18.7639678 46.6238262,19.3572739 46.761299,20.3863626 C46.8553741,21.0900319 47.0165058,21.7978502 47.2491737,22.4692956 C49.2923673,28.3705473 51.3590797,34.2644691 53.4200524,40.1608803 C53.4760495,40.322691 53.5421261,40.4807677 53.6357812,40.724037 C53.8606095,40.0830175 54.0586992,39.5244247 54.2509092,38.9661085 C55.5098637,35.3018557 56.7696581,31.6374647 58.0165732,27.9705843 C58.0788699,27.7881669 58.0794299,27.5520892 58.019233,27.3689803 C57.3182895,25.2148229 56.6026468,23.0650911 55.8843442,20.9168805 C55.791109,20.638898 55.6715552,20.3689368 55.5517215,20.1020182 C55.139303,19.1914525 54.466638,18.6038167 53.4266321,18.4645488 L53.4266321,17.5965794 L66.1866879,17.5965794 L66.1866879,18.4208461 C65.5928388,18.5059004 64.9992697,18.5533373 64.4243197,18.6807114 C63.4524902,18.8961824 63.0318121,19.4686052 63.2335416,20.4267461 C63.4468905,21.4443559 63.7407352,22.4507634 64.0663583,23.4398835 C65.9047426,29.0143328 67.7634258,34.5825586 69.6152495,40.1521674 C69.6443679,40.2402643 69.681326,40.3260102 69.7294835,40.4515864 C69.7730212,40.3756598 69.8087194,40.3320954 69.8239786,40.2838288 C71.2857825,35.6727758 72.7587858,31.0665632 74.197211,26.4492867 C74.6548471,24.9798515 75.0291877,23.4798521 74.9636711,21.9212136 C74.9436521,21.4464304 74.8723958,20.9575407 74.7254035,20.5062685 C74.3654822,19.3922637 73.4710688,18.8730864 72.3829054,18.6269128 C72.0017052,18.5408903 71.6102856,18.5049323 71.1940873,18.4414527 L71.1940873,17.5909091 L80.133182,17.5909091 C80.133182,17.8398487 80.1441014,18.0827031 80.1254824,18.3250043 C80.1196027,18.3987181 80.0491864,18.4974642 79.9803099,18.5317625 C78.1762238,19.4385942 77.154837,20.9836793 76.5432088,22.8009385 C75.6864534,25.348697 74.9100539,27.9223177 74.1069157,30.4872254 C72.2266735,36.4915105 70.3497912,42.49787 68.472069,48.5028465 C68.4390307,48.6136246 68.4006727,48.723573 68.356575,48.8568939" id="Fill-1" fill="#2A3E42"></path>
                <path d="M113.518234,36.7151548 L114.490842,36.7151548 C114.560106,37.3457482 114.616764,37.9712539 114.699881,38.5933221 C114.962116,40.5494541 115.47384,42.4300965 116.4265,44.1792851 C117.716061,46.544079 119.74287,47.6541489 122.412866,47.6885249 C123.648263,47.7031004 124.821044,47.4756687 125.889098,46.8273373 C127.179629,46.0431519 127.843457,44.8824806 127.976167,43.4026624 C128.176341,41.1477341 127.332841,39.3308936 125.656094,37.8402126 C124.336887,36.6684034 122.883447,35.6809871 121.431531,34.6861456 C119.816567,33.5792383 118.19149,32.4750811 116.674742,31.2438701 C115.233493,30.072611 114.165854,28.5727172 113.765092,26.7201256 C113.221506,24.2109524 113.486511,21.8395582 115.204263,19.7856608 C116.282291,18.4950482 117.690433,17.6972499 119.288081,17.2221735 C121.677973,16.5108653 124.105129,16.4360631 126.543091,16.930115 C127.679162,17.1602967 128.709398,17.6863871 129.717747,18.2476784 C130.126267,18.4755226 130.539913,18.7033667 130.972675,18.8781343 C131.483707,19.0837028 131.816175,18.9312109 131.998755,18.4104832 C132.148089,17.9846333 132.232176,17.5362327 132.352003,17.0709191 L133.278758,17.0709191 C133.215312,20.3849033 133.151727,23.6935248 133.088004,27.0245595 L132.149613,27.0245595 C132.00305,26.2106733 131.900677,25.4025622 131.708538,24.6146642 C131.237542,22.6810828 130.445713,20.9089311 128.973988,19.4912647 C127.170625,17.752664 124.442862,17.1971478 122.254251,18.1848391 C120.717279,18.8799219 119.903286,20.0958699 119.783459,21.7713562 C119.619718,24.0317847 120.648291,25.721984 122.409542,27.0070965 C124.076454,28.222632 125.806535,29.3536025 127.493673,30.5414996 C128.816758,31.4733643 130.162838,32.3800658 131.416105,33.399108 C133.040905,34.7229966 134.259816,36.3658946 134.670969,38.4643433 C135.546607,42.9332237 133.396507,46.560992 129.056966,48.0416352 C126.710018,48.8434211 124.299762,48.9901379 121.850718,48.7731566 C119.887078,48.5996265 118.062105,47.9999715 116.370396,46.9956422 C116.160664,46.8706511 115.929598,46.7738483 115.697009,46.696846 C115.13583,46.5092905 114.820955,46.6521572 114.633388,47.2157861 C114.493613,47.6339358 114.414374,48.0707861 114.302859,48.5216617 L113.363636,48.5216617 C113.41503,44.5846469 113.466563,40.6589073 113.518234,36.7151548" id="Fill-3" fill="#2A3E42"></path>
                <path d="M166.590406,17.5909091 L166.590406,18.0853067 L166.590406,18.4327999 C165.748214,18.5196385 164.94402,18.5611158 164.154996,18.6915124 C162.715852,18.9302493 162.115142,19.5891686 161.951881,21.0353232 C161.899131,21.5021155 161.865588,21.9751502 161.86531,22.4451331 C161.86016,30.7759541 161.860995,39.1076075 161.860995,47.438706 L161.860995,47.8258731 C162.797969,47.8708183 163.708638,47.8662406 164.613601,47.6652355 C166.550043,47.2332619 167.814235,45.9835347 168.729358,44.3130702 C169.696396,42.5502182 170.211787,40.6307515 170.656613,38.6892284 C170.818482,37.9818958 170.814864,37.9806474 171.548771,37.9949355 C171.627966,37.9963227 171.707717,38.0046459 171.819898,38.0121368 C171.522466,41.6425742 171.768818,45.2427706 172,48.8636364 L144.636364,48.8636364 C144.873948,45.2495679 145.10499,41.6482617 144.817857,37.9949355 L145.321975,37.9949355 L145.820665,37.9949355 C145.946068,38.5442662 146.063677,39.0919321 146.197709,39.6343268 C146.602173,41.2710824 147.094182,42.8788455 147.905614,44.3709163 C149.170084,46.6987743 151.126429,47.8662406 153.787593,47.8470972 C154.103675,47.8444616 154.420593,47.8470972 154.779266,47.8470972 L154.779266,47.4410642 C154.779266,39.0733437 154.78372,30.7071491 154.769801,22.3403996 C154.768549,21.6982654 154.678359,21.0479467 154.555322,20.4152454 C154.38538,19.5336807 153.81195,18.9559125 152.934823,18.7905584 C152.091797,18.6315855 151.227197,18.5845594 150.371505,18.4914784 C150.27881,18.4812131 150.184862,18.4899525 150.064191,18.4899525 L150.064191,17.5909091 L166.590406,17.5909091 Z" id="Fill-5" fill="#2A3E42"></path>
                <g id="Group-9" transform="translate(0.000000, 17.590909)">
                    <mask id="mask-2" fill="white">
                        <use xlink:href="#path-1"></use>
                    </mask>
                    <g id="Clip-8"></g>
                    <path d="M27.1288369,10.837024 L26.1301336,10.837024 C25.9465056,10.0700119 25.7806569,9.30438359 25.5791106,8.54968689 C25.1622665,6.99227739 24.6563865,5.4668325 23.8060303,4.08073113 C22.5582762,2.04565149 20.7206066,1.04907546 18.3395536,1.02236911 C17.9857709,1.01835623 17.6318494,1.0262436 17.2782056,1.0312251 C17.2569537,1.0312251 17.2363962,1.04852196 17.1736126,1.07619694 L17.1736126,1.43500306 C17.1736126,9.70899179 17.1690289,17.9839492 17.1809744,26.2582146 C17.1823635,26.8998591 17.2452859,27.5511897 17.3634913,28.1820409 C17.5765665,29.3246024 18.1800944,29.9030095 19.3393681,30.0837271 C20.1736117,30.214353 21.0207732,30.2705332 21.8916869,30.3639363 L21.8916869,31.2012428 L5.42016687,31.2012428 L5.42016687,30.363106 C6.26621717,30.2727472 7.09976631,30.2203031 7.92206442,30.0873249 C9.20898874,29.8796241 9.81209995,29.2455903 9.99850605,27.9526153 C10.070596,27.4550191 10.111572,26.9477368 10.1129611,26.4440521 C10.1192116,18.1346394 10.1174059,9.82508833 10.1174059,1.51512212 L10.1174059,1.06886307 C7.44493706,0.817989381 5.17931131,1.50017763 3.63125178,3.93059437 C2.61338006,5.52910121 2.05318948,7.30348254 1.58856327,9.11647047 C1.46341283,9.60548737 1.34395736,10.0960264 1.25061541,10.591962 C1.21158403,10.8021535 1.12643729,10.8645606 0.925724319,10.8522452 C0.69070263,10.8377158 0.456236548,10.849201 0.177044116,10.849201 C0.474571574,7.2270996 0.230382372,3.63696283 -5.5560683e-05,0.0162452132 L27.3013528,0.0162452132 C27.0793879,3.60914948 26.8317262,7.20191537 27.1288369,10.837024" id="Fill-7" fill="#2A3E42" mask="url(#mask-2)"></path>
                </g>
                <g id="Group-12" transform="translate(76.227273, 11.727273)">
                    <mask id="mask-4" fill="white">
                        <use xlink:href="#path-3"></use>
                    </mask>
                    <g id="Clip-11"></g>
                    <path d="M24.2383075,34.4068443 C24.144029,33.6518609 24.0802895,32.8868973 24.0790287,32.1262913 C24.0717442,27.3651592 24.071464,22.6037459 24.0728649,17.8423326 L40.9213936,0.935822307 L40.0909586,0.10226222 L24.0735653,16.1745096 C24.0744059,14.1968777 24.074686,12.2191053 24.0760869,10.2413329 C24.0769274,9.62199634 24.1081668,9.00055129 24.1625205,8.38346381 C24.2762711,7.11035188 24.777642,6.5871629 26.0395446,6.38980736 C26.4831997,6.32121085 26.9289561,6.2738399 27.3819971,6.21452078 L27.3819971,5.3463813 L13.6527828,5.3463813 L13.6527828,6.18359612 C14.3301029,6.30715419 14.9780047,6.39599229 15.6110573,6.54822595 C16.1999825,6.69061994 16.6059543,7.09306219 16.7190044,7.69047035 C16.8390588,8.31992769 16.9345981,8.96498794 16.9354386,9.60358211 C16.9437037,14.1780418 16.9452447,18.7529232 16.9446843,23.3279451 L0.118709618,40.2114025 L0.949424791,41.0455248 L16.9439839,24.9957681 C16.9432835,27.5661694 16.9428632,30.1365708 16.9410421,32.7069721 C16.9410421,33.1466645 16.9131648,33.5895899 16.8617529,34.0270332 C16.7177436,35.2811687 16.2609203,35.7624688 15.0176493,35.9757084 C14.564048,36.0534417 14.1059639,36.0992664 13.6557247,36.1578827 L13.6557247,37.0330505 L27.3874605,37.0330505 L27.3874605,36.1739073 C26.796574,36.0833824 26.2195562,36.0107094 25.6498229,35.9033165 C24.8296142,35.7463036 24.3411313,35.2285967 24.2383075,34.4068443" id="Fill-10" fill="#E96530" mask="url(#mask-4)"></path>
                </g>
                <g id="Group-15" transform="translate(51.795455, 0.000000)">
                    <mask id="mask-6" fill="white">
                        <use xlink:href="#path-5"></use>
                    </mask>
                    <g id="Clip-14"></g>
                    <path d="M6.08878667,6.03843136 L4.39352944,2.63576318 L2.70946643,6.03843136 L6.08878667,6.03843136 Z M6.68327944,7.2488325 L2.10364618,7.2488325 L1.35576601,8.76282341 L0.100548037,8.76282341 L4.39352944,0.117331364 L8.69743853,8.76282341 L7.44302014,8.76282341 L6.68327944,7.2488325 Z" id="Fill-13" fill="#2A3E42" mask="url(#mask-6)"></path>
                </g>
                <path d="M70.2101052,6.00311154 L68.3070001,6.00311154 L68.3070001,4.88636364 L71.2975939,4.88636364 L71.2975939,7.30983774 C70.6015221,8.21470237 69.5250927,8.79545455 68.3070001,8.79545455 C66.2077258,8.79545455 64.5,7.04143423 64.5,4.88636364 C64.5,2.73088739 66.2077258,0.977272727 68.3070001,0.977272727 C69.5466845,0.977272727 70.6448374,1.59155844 71.3409091,2.52901009 L70.4813191,3.21076853 C69.9815483,2.52901009 69.1981879,2.09402063 68.3070001,2.09402063 C66.8063712,2.09402063 65.5874886,3.34490268 65.5874886,4.88636364 C65.5874886,6.42795981 66.8063712,7.67870664 68.3070001,7.67870664 C69.0465187,7.67870664 69.7203404,7.3767696 70.2101052,6.88593598 L70.2101052,6.00311154 Z" id="Fill-16" fill="#2A3E42"></path>
                <polygon id="Fill-18" fill="#2A3E42" points="77.3992334 2.09400131 77.3992334 5.16605283 80.9175288 5.16605283 80.9175288 6.28237578 77.3992334 6.28237578 77.3992334 7.67859074 82.0909091 7.67859074 82.0909091 8.79545455 76.2272727 8.79545455 76.2272727 0.977272727 82.0909091 0.977272727 82.0909091 2.09400131"></polygon>
                <polygon id="Fill-20" fill="#2A3E42" points="94.7954545 0.977272727 94.7954545 8.79545455 94.7267128 8.79545455 89.0930635 3.52392849 89.0930635 8.79545455 87.9545455 8.79545455 87.9545455 0.977272727 88.0114161 0.977272727 93.6547279 6.24879878 93.6547279 0.977272727"></polygon>
                <path d="M104.686786,6.5615531 L105.545455,7.24358196 C104.850066,8.18103362 103.751217,8.79545455 102.511078,8.79545455 C100.412534,8.79545455 98.7045455,7.04143423 98.7045455,4.88636364 C98.7045455,2.73088739 100.412534,0.977272727 102.511078,0.977272727 C103.751217,0.977272727 104.850066,1.59155844 105.545455,2.53022704 L104.686786,3.21076853 C104.186543,2.53022704 103.40293,2.09402063 102.511078,2.09402063 C101.009823,2.09402063 99.7919382,3.34571397 99.7919382,4.88636364 C99.7919382,6.42795981 101.009823,7.67870664 102.511078,7.67870664 C103.40293,7.67870664 104.186543,7.24358196 104.686786,6.5615531" id="Fill-22" fill="#2A3E42"></path>
                <polygon id="Fill-24" fill="#2A3E42" points="111.603921 2.09400131 111.603921 5.16605283 115.122784 5.16605283 115.122784 6.28237578 111.603921 6.28237578 111.603921 7.67859074 116.295455 7.67859074 116.295455 8.79545455 110.431818 8.79545455 110.431818 0.977272727 116.295455 0.977272727 116.295455 2.09400131"></polygon>
            </g>
        </g>
    </g>
</svg>