<?xml version="1.0" encoding="UTF-8"?>
<svg width="169px" height="53px" viewBox="0 0 169 53" version="1.1" xmlns="http://www.w3.org/2000/svg" xmlns:xlink="http://www.w3.org/1999/xlink">
    <!-- Generator: Sketch 59.1 (86144) - https://sketch.com -->
    <title>Group 26</title>
    <desc>Created with Sketch.</desc>
    <defs>
        <polygon id="path-1" points="0 0.0162113902 26.9922127 0.0162113902 26.9922127 31.0043045 0 31.0043045"></polygon>
        <polygon id="path-3" points="0.116335425 0.100124466 40.0935302 0.100124466 40.0935302 40.2150538 0.116335425 40.2150538"></polygon>
        <polygon id="path-5" points="0.104498208 0.112254839 9.03794558 0.112254839 9.03794558 8.37747631 0.104498208 8.37747631"></polygon>
    </defs>
    <g id="Page-1" stroke="none" stroke-width="1" fill="none" fill-rule="evenodd">
        <g id="POSTER-ANNONCE-Copy" transform="translate(-940.000000, -867.000000)">
            <g id="Group-26" transform="translate(939.000000, 867.000000)">
                <path d="M67.7778748,48.2513647 C66.7980485,48.2513647 65.8547512,48.240508 64.9107671,48.2580645 C64.6652269,48.2627711 64.6579486,48.0988212 64.6096096,47.9556227 C63.8563724,45.6769532 63.1069804,43.3960848 62.3562151,41.1164533 C61.0410369,37.1210513 59.7277813,33.1255119 58.4126031,29.1312093 C58.386923,29.0546627 58.3549259,28.9807273 58.2914809,28.8177394 C58.225976,28.9932331 58.1832674,29.1002883 58.1468758,29.209405 C56.0754393,35.4455468 54.0024921,41.6829255 51.9399818,47.9218158 C51.8571738,48.1715198 51.7661262,48.2627711 51.4851556,48.2527389 C50.6708081,48.2249788 49.8530273,48.2289641 49.0377185,48.2527389 C48.7913543,48.2600225 48.700856,48.1856748 48.6221677,47.9648303 C47.1371164,43.7944844 45.6436881,39.6257875 44.152045,35.4570907 C42.4041502,30.5755623 40.6583154,25.6937591 38.9082234,20.8133302 C38.6063792,19.9711803 38.2442486,19.152393 37.486205,18.6187657 C37.1051233,18.3505091 36.6578501,18.1781762 36.1935484,17.9369926 L36.1935484,17.1849945 L48.0688783,17.1849945 L48.0688783,18.0426736 C48.0066693,18.0579279 47.9521506,18.0698841 47.8976319,18.0841764 C46.9062701,18.3484477 46.4589969,18.9380075 46.5938518,19.9605985 C46.6861354,20.6598247 46.8441984,21.3631738 47.0724355,22.0303797 C49.0767193,27.8943704 51.1040739,33.7510775 53.1257982,39.6102583 C53.1807289,39.7710474 53.2455471,39.9281259 53.3374187,40.1698592 C53.5579655,39.5328872 53.7522828,38.9778213 53.9408324,38.4230304 C55.1758118,34.781914 56.4116151,31.1406603 57.6347844,27.4969328 C57.6958948,27.3156672 57.6964441,27.0810801 57.6373936,26.8991274 C56.9497986,24.7585715 56.2477843,22.6224132 55.5431608,20.4877667 C55.4517012,20.2115393 55.3344242,19.9432827 55.2168725,19.6780495 C54.8123079,18.7732331 54.1524529,18.1893077 53.1322526,18.0509192 L53.1322526,17.1884302 L65.6493104,17.1884302 L65.6493104,18.0074924 C65.0667703,18.0920097 64.4845049,18.139147 63.920504,18.2657169 C62.9671818,18.4798274 62.5545149,19.0486359 62.7524028,20.000727 C62.9616887,21.0119116 63.2499375,22.0119645 63.5693595,22.9948392 C65.3727343,28.534091 67.1960214,34.0671586 69.0125796,39.6016004 C69.0411435,39.6891411 69.0773978,39.7743456 69.1246382,39.8991289 C69.1673468,39.8236817 69.2023651,39.7803924 69.2173337,39.7324305 C70.6512996,35.150492 72.0962515,30.5733635 73.5072838,25.9852408 C73.9562049,24.5250838 74.3234166,23.0345555 74.2591477,21.4857583 C74.23951,21.0139729 74.1696107,20.5281701 74.0254176,20.0797473 C73.6723505,18.9727765 72.79497,18.4568772 71.7275292,18.212258 C71.3535885,18.1267786 70.969623,18.0910477 70.5613506,18.027969 L70.5613506,17.1827957 L79.3302123,17.1827957 C79.3302123,17.4301635 79.3409238,17.6714845 79.3226593,17.9122558 C79.3168916,17.9855042 79.2478162,18.0836267 79.1802515,18.1177085 C77.4105218,19.0188144 76.4085859,20.5541437 75.8086053,22.3599285 C74.9681657,24.8916004 74.2065516,27.448971 73.418708,29.9976837 C71.5742726,35.9640572 69.733133,41.9324921 67.8911694,47.8995527 C67.8587603,48.0096314 67.8211328,48.1188855 67.7778748,48.2513647" id="Fill-1" fill="#FEFEFE"></path>
                <path d="M112.389031,36.8701319 L113.348262,36.8701319 C113.416573,37.499201 113.472452,38.1231947 113.554426,38.7437591 C113.813054,40.6951627 114.31774,42.5712591 115.257297,44.3162193 C116.529123,46.675297 118.528056,47.7826835 121.161331,47.8169765 C122.379737,47.8315166 123.536388,47.6046348 124.589753,46.9578705 C125.862534,46.1755808 126.517233,45.017715 126.648118,43.541474 C126.845538,41.2919965 126.01364,39.4795478 124.359953,37.9924701 C123.05889,36.8234935 121.62544,35.8384641 120.193493,34.8460274 C118.60074,33.7417958 116.998013,32.6403076 115.502126,31.4120728 C114.080699,30.2436449 113.027744,28.7473768 112.632493,26.8992635 C112.096384,24.3961556 112.357744,22.0304937 114.051871,19.9815611 C115.115073,18.6940682 116.503847,17.8981984 118.079522,17.4242705 C120.436545,16.7146816 122.83032,16.6400603 125.234751,17.1329179 C126.355198,17.3625432 127.371264,17.8873619 128.365744,18.4472965 C128.768646,18.6745898 129.176603,18.9018832 129.603413,19.0762284 C130.107416,19.2812999 130.435312,19.1291766 130.615381,18.6097077 C130.762661,18.1848871 130.845591,17.7375705 130.96377,17.2733817 L131.877779,17.2733817 C131.815206,20.5793551 131.752496,23.8799788 131.689649,27.2029614 L130.764164,27.2029614 C130.619617,26.3910426 130.518652,25.5848849 130.329156,24.7988915 C129.864637,22.8699841 129.083699,21.1021161 127.632214,19.6878767 C125.853654,17.9534786 123.163407,17.3993052 121.004898,18.384609 C119.489064,19.0780116 118.686266,20.2910203 118.568087,21.9624566 C118.406598,24.217421 119.421025,25.9035346 121.158052,27.1855406 C122.802039,28.3981378 124.508326,29.5263745 126.172259,30.7114002 C127.477147,31.6410123 128.804714,32.545522 130.040744,33.5621009 C131.643197,34.8827893 132.845345,36.521716 133.250842,38.6150922 C134.114437,43.0731701 131.993909,46.6921691 127.714052,48.1692332 C125.399382,48.969081 123.022275,49.1154431 120.606914,48.8989862 C118.670281,48.7258757 116.870407,48.1276702 115.201965,47.1257686 C114.995118,47.0010796 114.76723,46.9045108 114.53784,46.8276947 C113.984379,46.6405926 113.673835,46.7831139 113.488847,47.3453804 C113.350994,47.7625193 113.272846,48.1983136 113.162864,48.6480993 L112.236559,48.6480993 C112.287246,44.7206013 112.33807,40.8043513 112.389031,36.8701319" id="Fill-3" fill="#FEFEFE"></path>
                <path d="M164.651665,17.1827957 L164.651665,17.6740716 L164.651665,18.0193708 C163.819011,18.1056611 163.023923,18.1468764 162.243835,18.2764498 C160.820988,18.5136792 160.22708,19.1684381 160.065668,20.6054615 C160.013516,21.0693064 159.980353,21.5393544 159.980077,22.0063697 C159.974986,30.2845893 159.975812,38.563636 159.975812,46.8421313 L159.975812,47.2268538 C160.902176,47.2715152 161.802532,47.2669664 162.697247,47.0672305 C164.61176,46.6379843 165.861635,45.396148 166.766395,43.7362309 C167.722482,41.9845098 168.232037,40.0771628 168.671826,38.1478986 C168.831862,37.4450322 168.828284,37.4437916 169.553881,37.4579895 C169.632179,37.4593679 169.711027,37.4676386 169.821938,37.4750822 C169.527874,41.0825967 169.771436,44.6600612 170,48.2580645 L142.946237,48.2580645 C143.18113,44.6668156 143.409556,41.0882483 143.125675,37.4579895 L143.624084,37.4579895 L144.117126,37.4579895 C144.24111,38.0038516 144.357387,38.5480596 144.489901,39.0870295 C144.889784,40.7134505 145.376222,42.3110621 146.178465,43.7937119 C147.428616,46.1068715 149.362807,47.2669664 151.993835,47.2479439 C152.306338,47.2453249 152.619667,47.2479439 152.974278,47.2479439 L152.974278,46.8444746 C152.974278,38.5295885 152.978681,30.2162187 152.964921,21.9022975 C152.963682,21.2642178 152.874514,20.6180053 152.75287,19.9892989 C152.584853,19.1133005 152.017916,18.5391804 151.150722,18.3748703 C150.317243,18.2169012 149.462434,18.1701721 148.616432,18.0776787 C148.524786,18.0674783 148.431902,18.0761625 148.312598,18.0761625 L148.312598,17.1827957 L164.651665,17.1827957 Z" id="Fill-5" fill="#FEFEFE"></path>
                <g id="Group-9" transform="translate(0.000000, 17.182796)">
                    <mask id="mask-2" fill="white">
                        <use xlink:href="#path-1"></use>
                    </mask>
                    <g id="Clip-8"></g>
                    <path d="M28.6594882,10.7686669 L27.6720945,10.7686669 C27.4905459,10.0064978 27.3265754,9.24570373 27.1273114,8.49577224 C26.7151878,6.94819636 26.2150365,5.43238324 25.3743099,4.05503383 C24.1406858,2.03280383 22.3238264,1.04252027 19.969737,1.01598254 C19.6199607,1.011995 19.270047,1.01983257 18.920408,1.02478261 C18.8993967,1.02478261 18.8790721,1.04197026 18.8169995,1.0694705 L18.8169995,1.42601109 C18.8169995,9.64775721 18.8124677,17.8704658 18.8242779,26.092487 C18.8256512,26.73008 18.8878611,27.3772981 19.0047279,28.004166 C19.2153902,29.1395133 19.8120836,29.7142683 20.9582293,29.8938448 C21.7830258,30.023646 22.6205938,30.0794715 23.4816451,30.1722848 L23.4816451,31.0043045 L7.19665279,31.0043045 L7.19665279,30.1714597 C8.0331222,30.0816715 8.85723202,30.0295585 9.67021821,29.8974199 C10.9425691,29.6910306 11.5388505,29.0610001 11.7231457,27.776189 C11.7944193,27.2817348 11.8349313,26.7776554 11.8363046,26.2771511 C11.8424844,18.0202046 11.8406991,9.76312071 11.8406991,1.50562427 L11.8406991,1.06218294 C9.19849396,0.812893282 6.95852474,1.49077415 5.42799584,3.90584504 C4.42165077,5.49425878 3.86780393,7.25743653 3.40843927,9.05897711 C3.28470607,9.54490632 3.16660334,10.032348 3.07431842,10.5251523 C3.03572904,10.7340166 2.95154652,10.7960296 2.75310648,10.783792 C2.52074624,10.7693544 2.28893531,10.780767 2.01290453,10.780767 C2.30706271,7.18153587 2.06563877,3.61406751 1.83781037,0.0162113902 L28.8300505,0.0162113902 C28.6105992,3.58642977 28.365742,7.15651066 28.6594882,10.7686669" id="Fill-7" fill="#FEFEFE" mask="url(#mask-2)"></path>
                </g>
                <g id="Group-12" transform="translate(74.946237, 12.064516)">
                    <mask id="mask-4" fill="white">
                        <use xlink:href="#path-3"></use>
                    </mask>
                    <g id="Clip-11"></g>
                    <path d="M23.7479637,33.710682 C23.6555926,32.9709729 23.5931426,32.2214855 23.5919074,31.4764052 C23.5847702,26.8115967 23.5844957,22.1465127 23.5858683,17.4812911 L40.0935302,0.916820592 L39.2798959,0.100124466 L23.5865545,15.8473479 C23.587378,13.9095883 23.5876525,11.9718287 23.5890251,10.0342068 C23.5898486,9.42740021 23.6204559,8.81839004 23.67371,8.21392473 C23.7851592,6.96643173 24.2763868,6.45396524 25.5127595,6.26060245 C25.947439,6.193256 26.3841772,6.14698115 26.8280526,6.08872441 L26.8280526,5.23814848 L13.3765975,5.23814848 L13.3765975,6.05856312 C14.0402145,6.17962145 14.6750084,6.26666225 15.2952536,6.41581603 C15.8722641,6.55532921 16.2700225,6.94949183 16.3807855,7.53495139 C16.4984111,8.15153631 16.5920175,8.7836839 16.592841,9.40935852 C16.6009389,13.8912712 16.6023114,18.373597 16.6018997,22.8559228 L0.116335425,39.3979445 L0.930244192,40.2151915 L16.6012134,24.4901414 C16.6005271,27.0085403 16.6001154,29.5269392 16.5983311,32.045338 C16.5983311,32.4759972 16.5710178,32.9099617 16.520646,33.3386927 C16.3795502,34.5674554 15.931969,35.0390183 14.7138509,35.2479437 C14.2694265,35.3241044 13.8206101,35.3690021 13.3794798,35.4262947 L13.3794798,36.2838945 L26.8334054,36.2838945 L26.8334054,35.4421329 C26.2544733,35.3534394 25.6891293,35.282099 25.1309224,35.1768788 C24.3273076,35.0230424 23.8487073,34.5158094 23.7479637,33.710682" id="Fill-10" fill="#FEFEFE" mask="url(#mask-4)"></path>
                </g>
                <g id="Group-15" transform="translate(50.817204, 0.000000)">
                    <mask id="mask-6" fill="white">
                        <use xlink:href="#path-5"></use>
                    </mask>
                    <g id="Clip-14"></g>
                    <path d="M6.32716846,5.77291179 L4.56554415,2.51990391 L2.8155523,5.77291179 L6.32716846,5.77291179 Z M6.94493483,6.93007559 L2.18601499,6.93007559 L1.4088563,8.37747631 L0.104498208,8.37747631 L4.56554415,0.112240824 L9.03794558,8.37747631 L7.73441838,8.37747631 L6.94493483,6.93007559 Z" id="Fill-13" fill="#FEFEFE" mask="url(#mask-6)"></path>
                </g>
                <path d="M69.0453339,5.53595921 L67.1129272,5.53595921 L67.1129272,4.38709677 L70.1495663,4.38709677 L70.1495663,6.88026318 C69.4427773,7.81114917 68.3497744,8.40860215 67.1129272,8.40860215 C64.981331,8.40860215 63.2473118,6.60414114 63.2473118,4.38709677 C63.2473118,2.16963509 64.981331,0.365591398 67.1129272,0.365591398 C68.3716987,0.365591398 69.4867595,0.997542243 70.1935484,1.96195237 L69.3207236,2.66331626 C68.8132579,1.96195237 68.0178363,1.51445383 67.1129272,1.51445383 C65.5891935,1.51445383 64.3515442,2.80130773 64.3515442,4.38709677 C64.3515442,5.97302492 65.5891935,7.25973972 67.1129272,7.25973972 C67.863832,7.25973972 68.5480283,6.94911981 69.0453339,6.44417119 L69.0453339,5.53595921 Z" id="Fill-16" fill="#FEFEFE"></path>
                <polygon id="Fill-18" fill="#FEFEFE" points="76.4078852 1.51443396 76.4078852 4.67482905 79.698314 4.67482905 79.698314 5.8232543 76.4078852 5.8232543 76.4078852 7.25962049 80.7956989 7.25962049 80.7956989 8.40860215 75.311828 8.40860215 75.311828 0.365591398 80.7956989 0.365591398 80.7956989 1.51443396"></polygon>
                <polygon id="Fill-20" fill="#FEFEFE" points="93.2258065 0.365591398 93.2258065 8.40860215 93.1560063 8.40860215 87.4356174 2.98548183 87.4356174 8.40860215 86.2795699 8.40860215 86.2795699 0.365591398 86.3373162 0.365591398 92.0675164 5.78871172 92.0675164 0.365591398"></polygon>
                <path d="M104.052842,6.11045997 L104.924731,6.81210207 C104.218636,7.7765122 103.102868,8.40860215 101.843636,8.40860215 C99.7127808,8.40860215 97.9784946,6.60414114 97.9784946,4.38709677 C97.9784946,2.16963509 99.7127808,0.365591398 101.843636,0.365591398 C103.102868,0.365591398 104.218636,0.997542243 104.924731,1.96320431 L104.052842,2.66331626 C103.544897,1.96320431 102.749219,1.51445383 101.843636,1.51445383 C100.319266,1.51445383 99.0826296,2.80214236 99.0826296,4.38709677 C99.0826296,5.97302492 100.319266,7.25973972 101.843636,7.25973972 C102.749219,7.25973972 103.544897,6.81210207 104.052842,6.11045997" id="Fill-22" fill="#FEFEFE"></path>
                <polygon id="Fill-24" fill="#FEFEFE" points="110.408018 1.51443396 110.408018 4.67482905 113.698978 4.67482905 113.698978 5.8232543 110.408018 5.8232543 110.408018 7.25962049 114.795699 7.25962049 114.795699 8.40860215 109.311828 8.40860215 109.311828 0.365591398 114.795699 0.365591398 114.795699 1.51443396"></polygon>
            </g>
        </g>
    </g>
</svg>