<?xml version="1.0" encoding="UTF-8"?>
<svg width="171px" height="53px" viewBox="0 0 171 53" version="1.1" xmlns="http://www.w3.org/2000/svg" xmlns:xlink="http://www.w3.org/1999/xlink">
    <!-- Generator: Sketch 59.1 (86144) - https://sketch.com -->
    <title>Group 26</title>
    <desc>Created with Sketch.</desc>
    <defs>
        <polygon id="path-1" points="0 0.0163337717 27.2336456 0.0163337717 27.2336456 31.2383591 0 31.2383591"></polygon>
        <polygon id="path-3" points="0.116093352 0.100063429 40.0195183 0.100063429 40.0195183 40.1408451 0.116093352 40.1408451"></polygon>
        <polygon id="path-5" points="0.100954225 0.107176056 8.73257394 0.107176056 8.73257394 7.99843803 0.100954225 7.99843803"></polygon>
    </defs>
    <g id="Page-1" stroke="none" stroke-width="1" fill="none" fill-rule="evenodd">
        <g id="POSTER-ANNONCE-Copy-3" transform="translate(-935.000000, -806.000000)">
            <g id="Group-26" transform="translate(934.640420, 806.000000)">
                <path d="M68.9580343,48.1621309 C67.9733854,48.1621309 67.0254453,48.1511923 66.0768151,48.1690141 C65.8300664,48.1736234 65.8227523,48.0085743 65.7741753,47.8642948 C65.0172308,45.5682845 64.2641504,43.2703356 63.50969,40.9734945 C62.1880386,36.9479301 60.8683194,32.9222272 59.5466681,28.8977705 C59.5208616,28.8205076 59.4887069,28.7461524 59.4249497,28.5819341 C59.3591225,28.7587527 59.3162036,28.8666161 59.2796329,28.9765566 C57.1980011,35.2597768 55.1148512,41.5441047 53.0421895,47.8302327 C52.9589739,48.0818218 52.8674781,48.1736234 52.5851247,48.163654 C51.7667691,48.1356843 50.9449633,48.1396997 50.1256416,48.163654 C49.8780649,48.1709926 49.7871211,48.0960836 49.7080456,47.8735719 C48.215685,43.6717428 46.7149063,39.4715753 45.2159216,35.2714077 C43.4594239,30.3530274 41.7049963,25.43437 39.9462907,20.5170974 C39.6429608,19.6685899 39.2790479,18.8436212 38.5172733,18.305827 C38.134316,18.0356837 37.6848413,17.8620498 37.2182544,17.6190455 L37.2182544,16.8613704 L49.152033,16.8613704 L49.152033,17.7255243 C49.0895178,17.7408938 49.0347307,17.7529402 48.9799437,17.7673404 C47.9837026,18.0334683 47.534228,18.6276174 47.6697466,19.6579281 C47.7624844,20.3624331 47.9213254,21.0710919 48.1506858,21.7431962 C50.1648344,27.6515944 52.2021674,33.552377 54.2338423,39.4559288 C54.2890434,39.6177933 54.3541806,39.7761961 54.4465044,40.0197543 C54.6681366,39.3778351 54.8634104,38.8187174 55.052888,38.2595997 C56.2939458,34.591134 57.5358315,30.9223914 58.7650211,27.2511564 C58.8264323,27.0685224 58.8269843,26.8321643 58.7676431,26.6488379 C58.0766639,24.4921224 57.3711944,22.3398377 56.6631028,20.1889376 C56.5711931,19.9107634 56.4533388,19.6403432 56.3352085,19.3731076 C55.9286528,18.461599 55.2655501,17.8731269 54.2403284,17.7338321 L54.2403284,16.8646935 L66.8189933,16.8646935 L66.8189933,17.6900775 C66.2335861,17.7750944 65.6484549,17.822726 65.0816781,17.9502514 C64.1236637,18.1659783 63.7089658,18.7390809 63.9078276,19.6983596 C64.1181436,20.7171779 64.4078112,21.7246421 64.7288053,22.7150752 C66.541056,28.2961444 68.3733171,33.8708442 70.1988161,39.4470671 C70.2275206,39.5354072 70.2639533,39.6211164 70.3114262,39.7469802 C70.3543451,39.670825 70.3895357,39.6273473 70.404578,39.5790234 C71.8456016,34.9624945 73.2976654,30.3508119 74.7156426,25.7280522 C75.1667732,24.256872 75.5357923,22.7550913 75.4712071,21.1944633 C75.4514727,20.7192548 75.3812293,20.2297845 75.2363266,19.7779764 C74.8815218,18.6626488 73.9998229,18.1428548 72.9271283,17.8962504 C72.5513471,17.8102643 72.1654917,17.7742636 71.7552099,17.7107086 L71.7552099,16.8591549 L80.5672307,16.8591549 C80.5672307,17.1083902 80.5779949,17.351533 80.5596405,17.5941219 C80.5538444,17.6677848 80.4844291,17.7667866 80.4165318,17.8009872 C78.6380917,18.7090342 77.6312244,20.2558158 77.0282909,22.0753714 C76.1837147,24.6261556 75.418352,27.202694 74.6266309,29.7706477 C72.7731174,35.7822015 70.9229159,41.7956938 69.0718865,47.8078015 C69.0393179,47.9187112 69.0015051,48.0287901 68.9580343,48.1621309" id="Fill-1" fill="#FEFEFE"></path>
                <path d="M113.635951,36.8750806 L114.580206,36.8750806 C114.647451,37.5029889 114.702457,38.1256943 114.783151,38.7452506 C115.037741,40.6929165 115.534547,42.565688 116.459436,44.3074284 C117.711404,46.6621531 119.679128,47.7674963 122.27129,47.8017259 C123.470673,47.8161023 124.609266,47.5896391 125.646184,46.9442052 C126.899094,46.1633589 127.54357,45.0074928 127.672412,43.5339757 C127.86675,41.2887859 127.04784,39.4796815 125.419972,37.9953479 C124.139223,36.8283914 122.728153,35.8453164 121.318562,34.854711 C119.750677,33.7525169 118.172974,32.6529243 116.700442,31.4269559 C115.301207,30.2608209 114.264692,28.7673137 113.875612,26.9226105 C113.347873,24.4241214 113.605153,22.0628247 115.27283,20.0176728 C116.319432,18.7325556 117.686523,17.9381544 119.237597,17.4651009 C121.55782,16.7568214 123.914221,16.6823378 126.281112,17.174286 C127.384065,17.4034876 128.384268,17.9273378 129.363221,18.4862392 C129.759832,18.7129763 130.16142,18.9399872 130.581567,19.1138737 C131.0777,19.3187038 131.400477,19.1668612 131.577735,18.6483507 C131.722715,18.2243141 131.80435,17.7778228 131.920684,17.3144905 L132.820423,17.3144905 C132.758826,20.6143637 132.697096,23.9088971 132.63523,27.2257481 L131.724194,27.2257481 C131.581904,26.4153274 131.482516,25.6106573 131.295978,24.8261142 C130.838712,22.900766 130.069966,21.1361602 128.641144,19.7243934 C126.890352,17.9933326 124.242108,17.4401817 122.117299,18.4236675 C120.625131,19.1156536 119.834868,20.326561 119.718534,21.9949131 C119.559567,24.2455797 120.558155,25.9285821 122.268062,27.2083595 C123.886381,28.4187192 125.566028,29.544874 127.203983,30.7275761 C128.488497,31.6556098 129.795338,32.5583136 131.012069,33.5731536 C132.589503,34.8914051 133.772882,36.5271706 134.172048,38.616821 C135.02216,43.0666728 132.934739,46.6789941 128.721703,48.1531957 C126.443172,48.9517045 124.103179,49.0977966 121.725529,48.8817391 C119.819132,48.708948 118.04736,48.1118463 116.404967,47.1117935 C116.201349,46.9873346 115.97702,46.8909439 115.751211,46.8142695 C115.206392,46.6275127 114.900696,46.769771 114.718596,47.331 C114.582896,47.7473692 114.505967,48.1823594 114.397703,48.6313152 L113.48586,48.6313152 C113.535756,44.7110642 113.585786,40.8019036 113.635951,36.8750806" id="Fill-3" fill="#FEFEFE"></path>
                <path d="M165.089682,17.6619718 L165.089682,18.1442645 L165.089682,18.4831144 C164.249579,18.5679622 163.447378,18.6082885 162.660311,18.7356279 C161.224737,18.9685195 160.625516,19.6113058 160.46266,21.0220525 C160.410041,21.4774158 160.376581,21.9388687 160.376304,22.3973444 C160.371167,30.5240574 160.372,38.6518529 160.372,46.7789719 L160.372,47.1566595 C161.30665,47.200369 162.215061,47.1959033 163.117779,46.999955 C165.049419,46.5785579 166.310476,45.3594291 167.223329,43.7298645 C168.187969,42.0101744 168.702082,40.1377041 169.145805,38.2437175 C169.307273,37.553568 169.303663,37.5523501 170.03575,37.5664237 C170.114749,37.567777 170.194302,37.5758964 170.306205,37.5832039 C170.00951,41.1247532 170.255252,44.6366667 170.48586,48.1690141 L143.190085,48.1690141 C143.42708,44.6434329 143.65755,41.1303015 143.371129,37.5664237 L143.873997,37.5664237 L144.37145,37.5664237 C144.496542,38.1021692 144.613859,38.6365614 144.747559,39.1655407 C145.151019,40.7623571 145.641808,42.3307556 146.451228,43.7862943 C147.712562,46.0571567 149.664056,47.1959033 152.318619,47.1772287 C152.633918,47.1747929 152.95005,47.1772287 153.307833,47.1772287 L153.307833,46.7812724 C153.307833,38.6184281 153.312276,30.4570723 153.298392,22.2951753 C153.297143,21.6687631 153.207176,21.0343669 153.084444,20.4170214 C152.914924,19.5571764 152.342916,18.993419 151.467965,18.8321135 C150.627029,18.6771682 149.764574,18.6312935 148.911004,18.5404915 C148.818538,18.5304776 148.724823,18.5388676 148.604452,18.5388676 L148.604452,17.6619718 L165.089682,17.6619718 Z" id="Fill-5" fill="#FEFEFE"></path>
                <g id="Group-9" transform="translate(0.288677, 16.859155)">
                    <mask id="mask-2" fill="white">
                        <use xlink:href="#path-1"></use>
                    </mask>
                    <g id="Clip-8"></g>
                    <path d="M27.0615575,10.8499607 L26.065331,10.8499607 C25.8821583,10.0820379 25.716721,9.31550048 25.5156745,8.55990768 C25.0998642,7.00064899 24.5952388,5.47339285 23.7469914,4.08564569 C22.5023318,2.04814968 20.6692196,1.05039036 18.2940716,1.02351375 C17.9411663,1.01963466 17.5881225,1.02753139 17.2353557,1.0325188 C17.2141565,1.0325188 17.19365,1.0498362 17.1310221,1.07754404 L17.1310221,1.43677619 C17.1310221,9.72045056 17.1264498,18.0053718 17.1383657,26.2894618 C17.1397513,26.931868 17.2025177,27.5838335 17.3204299,28.2154337 C17.5329767,29.3594904 18.1350079,29.9384458 19.2914065,30.1195165 C20.1235812,30.250159 20.9686418,30.3065444 21.8373956,30.4000584 L21.8373956,31.2383591 L5.40672487,31.2383591 L5.40672487,30.3990886 C6.25067697,30.308761 7.08215892,30.2562547 7.90241773,30.1231185 C9.18615048,29.9151712 9.78776598,29.2803846 9.97370979,27.9858743 C10.045621,27.4875488 10.0864954,26.9798026 10.0878809,26.4755199 C10.094116,18.156241 10.0923148,9.83682349 10.0923148,1.51699038 L10.0923148,1.07020146 C7.42647364,0.819029895 5.16646663,1.50202815 3.62224629,3.93519212 C2.60689889,5.53573549 2.04809758,7.31208511 1.58462364,9.12736425 C1.45978357,9.61696178 1.34062435,10.1080832 1.24751389,10.6046077 C1.20857931,10.8150488 1.12364373,10.87753 0.923428526,10.8650614 C0.68898969,10.8506534 0.455105083,10.8621521 0.176605048,10.8621521 C0.473394638,7.23575001 0.229811025,3.64135047 -5.54228927e-05,0.0163337717 L27.2336456,0.0163337717 C27.0122311,3.61350409 26.7651836,7.21053588 27.0615575,10.8499607" id="Fill-7" fill="#FEFEFE" mask="url(#mask-2)"></path>
                </g>
                <g id="Group-12" transform="translate(75.753466, 12.042254)">
                    <mask id="mask-4" fill="white">
                        <use xlink:href="#path-3"></use>
                    </mask>
                    <g id="Clip-11"></g>
                    <path d="M23.7041143,33.6485995 C23.6119137,32.9102554 23.5495789,32.162151 23.5483459,31.4183082 C23.5412219,26.7619701 23.5409479,22.1056321 23.5423179,17.4490191 L40.0195183,0.915252508 L39.2073855,0.100063429 L23.5430029,15.8180911 C23.5438249,13.8839072 23.5440989,11.9497234 23.5454689,10.015677 C23.5462909,9.40999011 23.5768418,8.80224122 23.6299976,8.19875386 C23.7412412,6.95370032 24.2315623,6.44204201 25.4656535,6.24903603 C25.8995308,6.18195133 26.3354632,6.1356244 26.7785194,6.07761263 L26.7785194,5.22860626 L13.3518863,5.22860626 L13.3518863,6.04736953 C14.0142787,6.16820447 14.6479013,6.25508465 15.2670019,6.4039632 C15.8429477,6.54321894 16.2399721,6.93679167 16.3505307,7.52103343 C16.4679392,8.13661803 16.5613729,8.76746165 16.5621949,9.39198172 C16.5702778,13.8656239 16.5717848,18.3396785 16.5712368,22.8138706 L0.116093352,39.3252298 L0.928500216,40.1409688 L16.5705518,24.4449361 C16.5698668,26.9586878 16.5694558,29.4724395 16.5676749,31.9861912 C16.5676749,32.4161931 16.540412,32.8493568 16.4901332,33.2771592 C16.3492977,34.5036545 15.9025424,34.9743471 14.6866721,35.1828871 C14.2430678,35.2589072 13.7950796,35.303722 13.3547633,35.3610464 L13.3547633,36.2169262 L26.7838624,36.2169262 L26.7838624,35.3767179 C26.2059987,35.2881881 25.6416978,35.2171168 25.084521,35.1120907 C24.2823891,34.9585383 23.8046719,34.4522412 23.7041143,33.6485995" id="Fill-10" fill="#E96530" mask="url(#mask-4)"></path>
                </g>
                <g id="Group-15" transform="translate(51.668959, 0.000000)">
                    <mask id="mask-6" fill="white">
                        <use xlink:href="#path-5"></use>
                    </mask>
                    <g id="Clip-14"></g>
                    <path d="M6.1133838,5.51171268 L4.41127817,2.40574789 L2.72041197,5.51171268 L6.1133838,5.51171268 Z M6.71027817,6.61652254 L2.11214437,6.61652254 L1.36124296,7.99843803 L0.100954225,7.99843803 L4.41127817,0.107149296 L8.73257394,7.99843803 L7.47308803,7.99843803 L6.71027817,6.61652254 Z" id="Fill-13" fill="#FEFEFE" mask="url(#mask-6)"></path>
                </g>
                <path d="M69.7422119,5.16082695 L67.7321568,5.16082695 L67.7321568,4.01408451 L70.8908148,4.01408451 L70.8908148,6.50265028 C70.1556255,7.43181851 69.0187033,8.02816901 67.7321568,8.02816901 C65.5149081,8.02816901 63.7112122,6.22703777 63.7112122,4.01408451 C63.7112122,1.8007147 65.5149081,0 67.7321568,0 C69.0415085,0 70.201375,0.630784708 70.9365643,1.59341521 L70.0286673,2.29348488 C69.5008106,1.59341521 68.6734271,1.14674244 67.7321568,1.14674244 C66.147196,1.14674244 64.8598151,2.43122171 64.8598151,4.01408451 C64.8598151,5.59708615 66.147196,6.88142657 67.7321568,6.88142657 C68.5132346,6.88142657 69.2249234,6.57124101 69.7422119,6.06722417 L69.7422119,5.16082695 Z" id="Fill-16" fill="#FEFEFE"></path>
                <polygon id="Fill-18" fill="#FEFEFE" points="77.6794915 1.14672261 77.6794915 4.30128583 81.0514313 4.30128583 81.0514313 5.4475919 77.6794915 5.4475919 77.6794915 6.88130756 82.1760009 6.88130756 82.1760009 8.02816901 76.5562826 8.02816901 76.5562826 0 82.1760009 0 82.1760009 1.14672261"></polygon>
                <polygon id="Fill-20" fill="#FEFEFE" points="94.2182544 0 94.2182544 8.02816901 94.1537167 8.02816901 88.8646082 2.61505595 88.8646082 8.02816901 87.7957192 8.02816901 87.7957192 0 87.8491118 0 93.1472919 5.41297421 93.1472919 0"></polygon>
                <path d="M104.550767,5.73412874 L105.457691,6.43461495 C104.723223,7.39724546 103.562622,8.02816901 102.25279,8.02816901 C100.036313,8.02816901 98.2323389,6.22703777 98.2323389,4.01408451 C98.2323389,1.8007147 100.036313,0 102.25279,0 C103.562622,0 104.723223,0.630784708 105.457691,1.59466484 L104.550767,2.29348488 C104.022412,1.59466484 103.194762,1.14674244 102.25279,1.14674244 C100.667168,1.14674244 99.3808406,2.43191595 99.3808406,4.01408451 C99.3808406,5.59708615 100.667168,6.88142657 102.25279,6.88142657 C103.194762,6.88142657 104.022412,6.43461495 104.550767,5.73412874" id="Fill-22" fill="#FEFEFE"></path>
                <polygon id="Fill-24" fill="#FEFEFE" points="111.397937 1.14672261 111.397937 4.30128583 114.770422 4.30128583 114.770422 5.4475919 111.397937 5.4475919 111.397937 6.88130756 115.894311 6.88130756 115.894311 8.02816901 110.274592 8.02816901 110.274592 0 115.894311 0 115.894311 1.14672261"></polygon>
            </g>
        </g>
    </g>
</svg>