<?xml version="1.0" encoding="UTF-8"?>
<svg width="38px" height="61px" viewBox="0 0 38 61" version="1.1" xmlns="http://www.w3.org/2000/svg" xmlns:xlink="http://www.w3.org/1999/xlink">
    <!-- Generator: Sketch 59.1 (86144) - https://sketch.com -->
    <title>Group 9 Copy</title>
    <desc>Created with Sketch.</desc>
    <defs>
        <polygon id="path-1" points="0.222923438 0.0005640625 37.3320016 0.0005640625 37.3320016 59.375 0.222923438 59.375"></polygon>
        <polygon id="path-3" points="0 0.3716875 37.5546875 0.3716875 37.5546875 59.9685125 0 59.9685125"></polygon>
    </defs>
    <g id="Page-1" stroke="none" stroke-width="1" fill="none" fill-rule="evenodd">
        <g id="POSTER-ANNONCE-Copy" transform="translate(-924.000000, -788.000000)">
            <g id="Group-9-Copy" transform="translate(924.000000, 788.000000)">
                <g id="Group-3" transform="translate(0.000000, 0.815812)">
                    <mask id="mask-2" fill="white">
                        <use xlink:href="#path-1"></use>
                    </mask>
                    <g id="Clip-2"></g>
                    <path d="M31.8960719,5.43649375 C24.6481656,-1.8114125 12.9067594,-1.8114125 5.65885313,5.43649375 C-1.58905312,12.6802438 -1.58905312,24.433525 5.65885313,31.6731188 C5.65885313,31.6731188 18.7706344,44.5313687 18.7706344,59.3751187 C18.7706344,44.5313687 31.8960719,31.6731188 31.8960719,31.6731188 C39.1439781,24.433525 39.1439781,12.6802438 31.8960719,5.43649375" id="Fill-1" fill="#417C82" mask="url(#mask-2)"></path>
                </g>
                <g id="Group-6" transform="translate(0.000000, 0.222062)">
                    <mask id="mask-4" fill="white">
                        <use xlink:href="#path-3"></use>
                    </mask>
                    <g id="Clip-5"></g>
                    <path d="M18.7773438,0.82745 C14.08375,0.82745 9.38896875,2.6146375 5.816375,6.187825 C2.3524375,9.64879375 0.4453125,14.2527312 0.4453125,19.1499812 C0.4453125,24.047825 2.3524375,28.6499812 5.81578125,32.1097625 C5.9363125,32.2279187 17.0507187,43.271075 18.7702187,56.5770125 C20.4920938,43.271075 31.618375,32.227325 31.7400937,32.108575 C35.20225,28.6499812 37.109375,24.047825 37.109375,19.1499812 C37.109375,14.2527312 35.20225,9.64879375 31.7389062,6.187825 L31.7383125,6.187825 C28.1657187,2.6146375 23.4709375,0.82745 18.7773438,0.82745 M18.992875,59.9685125 L18.5475625,59.9685125 C18.5475625,45.39195 5.63290625,32.5544812 5.502875,32.4262312 C1.9534375,28.88095 0,24.1671687 0,19.1499812 C0,14.1333875 1.9534375,9.41841875 5.5016875,5.87254375 C9.04875,2.3248875 13.7637187,0.37145 18.7773438,0.37145 C23.7909688,0.37145 28.5059375,2.3248875 32.0535938,5.87254375 L32.053,5.87254375 C35.60125,9.41841875 37.5546875,14.1333875 37.5546875,19.1499812 C37.5546875,24.1671687 35.60125,28.88095 32.053,32.4250437 C31.9217813,32.5544812 18.992875,45.39195 18.992875,59.9685125" id="Fill-4" fill="#FEFEFE" mask="url(#mask-4)"></path>
                </g>
                <path d="M20.5753969,25.3967062 C20.5296781,25.0333312 20.4988031,24.6646125 20.4982094,24.297675 C20.4946469,22.0040187 20.4940531,19.7097687 20.4952406,17.4155188 L28.6408969,9.2698625 L28.2395219,8.86789375 L20.4952406,16.612175 C20.4958344,15.6592062 20.4958344,14.7062375 20.4964281,13.7532687 C20.4970219,13.4552062 20.5124594,13.1553625 20.5385844,12.8578937 C20.5932094,12.24455 20.8354594,11.9928 21.4464281,11.8978 C21.6601781,11.86455 21.8757094,11.8413937 22.0953969,11.8128937 L22.0953969,11.3948937 L15.4572719,11.3948937 L15.4572719,11.79805 C15.7850219,11.857425 16.0979281,11.9007687 16.4043031,11.9738 C16.6887094,12.042675 16.8852406,12.2362375 16.9398656,12.5242063 C16.9980531,12.8276125 17.0443656,13.1381437 17.0443656,13.4457062 C17.0485219,15.6503 17.0491156,17.8543 17.0491156,20.0588937 L8.91355312,28.1938625 L9.31552188,28.5958312 L17.0485219,20.8622375 C17.0485219,22.1008 17.0479281,23.3393625 17.0473344,24.577925 C17.0473344,24.7898937 17.0336781,25.00305 17.0087406,25.2132375 C16.9392719,25.8182687 16.7183969,26.050425 16.1169281,26.15255 C15.8978344,26.1899562 15.6763656,26.211925 15.4590531,26.240425 L15.4590531,26.6619875 L22.0971781,26.6619875 L22.0971781,26.2481437 C21.8121781,26.2042062 21.5331156,26.1697687 21.2576156,26.1181125 C20.8609906,26.0421125 20.6246781,25.7927375 20.5753969,25.3967062" id="Fill-7" fill="#FEFEFE"></path>
            </g>
        </g>
    </g>
</svg>